<?xml version="1.0" encoding="UTF-8"?>
<svg id="Layer_1" data-name="Layer 1" xmlns="http://www.w3.org/2000/svg" version="1.1" xmlns:xlink="http://www.w3.org/1999/xlink" viewBox="0 0 1362.1 450">
  <defs>
    <style>
      .cls-1 {
        fill: url(#linear-gradient-38);
      }

      .cls-1, .cls-2, .cls-3, .cls-4, .cls-5, .cls-6, .cls-7, .cls-8, .cls-9, .cls-10, .cls-11, .cls-12, .cls-13, .cls-14, .cls-15, .cls-16, .cls-17, .cls-18, .cls-19, .cls-20, .cls-21, .cls-22, .cls-23, .cls-24, .cls-25, .cls-26, .cls-27, .cls-28, .cls-29, .cls-30, .cls-31, .cls-32, .cls-33, .cls-34, .cls-35, .cls-36, .cls-37, .cls-38, .cls-39, .cls-40, .cls-41, .cls-42, .cls-43, .cls-44, .cls-45, .cls-46, .cls-47, .cls-48, .cls-49, .cls-50, .cls-51 {
        stroke-width: 0px;
      }

      .cls-2 {
        fill: url(#linear-gradient-12);
      }

      .cls-3 {
        fill: url(#linear-gradient-17);
      }

      .cls-4 {
        fill: url(#linear-gradient-19);
      }

      .cls-5 {
        fill: url(#linear-gradient-33);
      }

      .cls-6 {
        fill: url(#linear-gradient);
      }

      .cls-7 {
        fill: #826aaf;
      }

      .cls-8, .cls-52, .cls-53, .cls-54 {
        fill: #000;
      }

      .cls-52, .cls-53, .cls-55 {
        font-family: ArialMT, Arial;
      }

      .cls-52, .cls-56 {
        letter-spacing: 0em;
      }

      .cls-52, .cls-54 {
        font-size: 154.2px;
      }

      .cls-53 {
        font-size: 53.1px;
        letter-spacing: .4em;
      }

      .cls-56 {
        font-family: Arial-BoldMT, Arial;
        font-weight: 700;
      }

      .cls-9 {
        fill: url(#linear-gradient-21);
      }

      .cls-10 {
        fill: url(#linear-gradient-6);
      }

      .cls-11 {
        fill: url(#New_Gradient_Swatch_2-2);
      }

      .cls-12 {
        fill: url(#linear-gradient-15);
      }

      .cls-13 {
        fill: url(#linear-gradient-11);
      }

      .cls-14 {
        fill: url(#linear-gradient-5);
      }

      .cls-15 {
        fill: #00cfff;
      }

      .cls-16 {
        fill: url(#linear-gradient-31);
      }

      .cls-17 {
        fill: url(#linear-gradient-34);
      }

      .cls-18 {
        fill: url(#New_Gradient_Swatch_2);
      }

      .cls-19 {
        fill: #666;
      }

      .cls-20 {
        fill: url(#linear-gradient-13);
      }

      .cls-55 {
        letter-spacing: 0em;
      }

      .cls-21 {
        fill: url(#linear-gradient-23);
      }

      .cls-22 {
        fill: url(#linear-gradient-25);
      }

      .cls-23 {
        fill: url(#linear-gradient-16);
      }

      .cls-24 {
        fill: url(#linear-gradient-22);
      }

      .cls-25 {
        fill: url(#linear-gradient-35);
      }

      .cls-26 {
        fill: url(#linear-gradient-32);
      }

      .cls-27 {
        fill: url(#linear-gradient-20);
      }

      .cls-28 {
        fill: url(#linear-gradient-14);
      }

      .cls-29 {
        fill: url(#linear-gradient-2);
      }

      .cls-30 {
        fill: url(#New_Gradient_Swatch_1);
      }

      .cls-31 {
        fill: url(#linear-gradient-7);
      }

      .cls-32 {
        fill: url(#linear-gradient-39);
      }

      .cls-33 {
        fill: url(#linear-gradient-3);
      }

      .cls-34 {
        fill: url(#New_Gradient_Swatch_1-2);
      }

      .cls-35 {
        fill: url(#linear-gradient-9);
      }

      .cls-36 {
        fill: url(#linear-gradient-27);
      }

      .cls-37 {
        fill: url(#New_Gradient_Swatch_2-3);
      }

      .cls-38 {
        fill: url(#linear-gradient-36);
      }

      .cls-39 {
        fill: url(#linear-gradient-8);
      }

      .cls-40 {
        fill: url(#linear-gradient-24);
      }

      .cls-41 {
        fill: url(#linear-gradient-26);
      }

      .cls-42 {
        fill: url(#linear-gradient-18);
      }

      .cls-43 {
        fill: url(#linear-gradient-30);
      }

      .cls-44 {
        fill: #fff;
      }

      .cls-45 {
        fill: url(#linear-gradient-29);
      }

      .cls-46 {
        fill: url(#linear-gradient-28);
      }

      .cls-47 {
        fill: #00b2e2;
      }

      .cls-48 {
        fill: url(#linear-gradient-10);
      }

      .cls-49 {
        fill: url(#linear-gradient-4);
      }

      .cls-50 {
        fill: url(#New_Gradient_Swatch_2-4);
      }

      .cls-51 {
        fill: url(#linear-gradient-37);
      }
    </style>
    <linearGradient id="New_Gradient_Swatch_2" data-name="New Gradient Swatch 2" x1="-1125" y1="-1100.3" x2="-854" y2="-1100.3" gradientUnits="userSpaceOnUse">
      <stop offset="0" stop-color="#6f60aa"/>
      <stop offset=".5" stop-color="#3d307d"/>
      <stop offset="1" stop-color="#150958"/>
    </linearGradient>
    <linearGradient id="linear-gradient" x1="-1055.2" y1="-1208" x2="-986.8" y2="-1208" gradientUnits="userSpaceOnUse">
      <stop offset="0" stop-color="#3fa9f5"/>
      <stop offset="0" stop-color="rgba(70, 172, 245, 1)" stop-opacity="1"/>
      <stop offset=".2" stop-color="rgba(91, 181, 246, .8)" stop-opacity=".8"/>
      <stop offset=".4" stop-color="rgba(124, 197, 248, .7)" stop-opacity=".7"/>
      <stop offset=".7" stop-color="rgba(170, 218, 250, .4)" stop-opacity=".4"/>
      <stop offset="1" stop-color="rgba(228, 245, 253, 0)" stop-opacity="0"/>
      <stop offset="1" stop-color="#effafe" stop-opacity="0"/>
    </linearGradient>
    <linearGradient id="linear-gradient-2" x1="-1080.5" y1="-1033.4" x2="-1051.7" y2="-1053.5" gradientUnits="userSpaceOnUse">
      <stop offset="0" stop-color="#826aaf"/>
      <stop offset=".2" stop-color="rgba(123, 102, 173, .7)" stop-opacity=".7"/>
      <stop offset=".5" stop-color="rgba(118, 99, 171, .4)" stop-opacity=".4"/>
      <stop offset=".7" stop-color="rgba(114, 97, 170, .2)" stop-opacity=".2"/>
      <stop offset=".9" stop-color="rgba(111, 96, 170, 0)" stop-opacity="0"/>
      <stop offset="1" stop-color="#6f60aa" stop-opacity="0"/>
    </linearGradient>
    <linearGradient id="linear-gradient-3" x1="-770.3" y1="-1019.3" x2="-118.9" y2="-1019.3" gradientUnits="userSpaceOnUse">
      <stop offset="0" stop-color="#3b2e7b"/>
      <stop offset="1" stop-color="#150958"/>
    </linearGradient>
    <linearGradient id="linear-gradient-4" x1="-791.5" y1="-1149.7" x2="-688.7" y2="-1149.7" gradientUnits="userSpaceOnUse">
      <stop offset="0" stop-color="#6f60aa"/>
      <stop offset="0" stop-color="#6a5ba6"/>
      <stop offset="0" stop-color="#50428d"/>
      <stop offset=".2" stop-color="#3a2d7a"/>
      <stop offset=".3" stop-color="#291c6a"/>
      <stop offset=".4" stop-color="#1d115f"/>
      <stop offset=".5" stop-color="#160a59"/>
      <stop offset="1" stop-color="#150958"/>
    </linearGradient>
    <linearGradient id="New_Gradient_Swatch_2-2" data-name="New Gradient Swatch 2" x1="162" y1="247.4" x2="433" y2="247.4" xlink:href="#New_Gradient_Swatch_2"/>
    <linearGradient id="linear-gradient-5" x1="231.8" y1="139.7" x2="300.2" y2="139.7" xlink:href="#linear-gradient"/>
    <linearGradient id="linear-gradient-6" x1="206.5" y1="314.3" x2="235.3" y2="294.1" xlink:href="#linear-gradient-2"/>
    <linearGradient id="linear-gradient-7" x1="495.5" y1="313.1" x2="1147" y2="313.1" xlink:href="#linear-gradient-3"/>
    <linearGradient id="linear-gradient-8" x1="495.5" y1="313.1" x2="1147" y2="313.1" xlink:href="#linear-gradient-3"/>
    <linearGradient id="linear-gradient-9" x1="495.5" y1="313.1" x2="1147" y2="313.1" xlink:href="#linear-gradient-3"/>
    <linearGradient id="linear-gradient-10" x1="495.5" y1="313.1" x2="1147" y2="313.1" xlink:href="#linear-gradient-3"/>
    <linearGradient id="linear-gradient-11" x1="495.5" y1="313.1" x2="1147" y2="313.1" xlink:href="#linear-gradient-3"/>
    <linearGradient id="linear-gradient-12" x1="495.5" y1="313.1" x2="1147" y2="313.1" xlink:href="#linear-gradient-3"/>
    <linearGradient id="linear-gradient-13" x1="495.5" y1="313.1" x2="1147" y2="313.1" xlink:href="#linear-gradient-3"/>
    <linearGradient id="linear-gradient-14" x1="495.5" y1="313.1" x2="1147" y2="313.1" xlink:href="#linear-gradient-3"/>
    <linearGradient id="linear-gradient-15" x1="495.5" y1="313.1" x2="1147" y2="313.1" xlink:href="#linear-gradient-3"/>
    <linearGradient id="linear-gradient-16" x1="495.5" y1="313.1" x2="1147" y2="313.1" xlink:href="#linear-gradient-3"/>
    <linearGradient id="linear-gradient-17" x1="495.5" y1="313.1" x2="1147" y2="313.1" xlink:href="#linear-gradient-3"/>
    <linearGradient id="linear-gradient-18" x1="495.5" y1="313.1" x2="1147" y2="313.1" xlink:href="#linear-gradient-3"/>
    <linearGradient id="linear-gradient-19" x1="495.5" y1="182.6" x2="598.3" y2="182.6" xlink:href="#linear-gradient-4"/>
    <linearGradient id="New_Gradient_Swatch_1" data-name="New Gradient Swatch 1" x1="1829.8" y1="780.1" x2="2123" y2="780.1" gradientUnits="userSpaceOnUse">
      <stop offset="0" stop-color="#00aeef"/>
      <stop offset=".3" stop-color="#00a6d8"/>
      <stop offset="1" stop-color="#0099b0"/>
    </linearGradient>
    <linearGradient id="New_Gradient_Swatch_2-3" data-name="New Gradient Swatch 2" x1="1931.8" y1="817.8" x2="2101.3" y2="817.8" xlink:href="#New_Gradient_Swatch_2"/>
    <linearGradient id="New_Gradient_Swatch_1-2" data-name="New Gradient Swatch 1" x1="617.9" y1="-1725" x2="760.3" y2="-1725" xlink:href="#New_Gradient_Swatch_1"/>
    <linearGradient id="New_Gradient_Swatch_2-4" data-name="New Gradient Swatch 2" x1="575" y1="-1646.3" x2="846" y2="-1646.3" xlink:href="#New_Gradient_Swatch_2"/>
    <linearGradient id="linear-gradient-20" x1="644.8" y1="-1754" x2="713.2" y2="-1754" gradientUnits="userSpaceOnUse">
      <stop offset="0" stop-color="#00b6f1"/>
      <stop offset=".2" stop-color="rgba(0, 180, 240, .8)" stop-opacity=".8"/>
      <stop offset=".6" stop-color="rgba(0, 177, 239, .4)" stop-opacity=".4"/>
      <stop offset="1" stop-color="#00aeef" stop-opacity="0"/>
    </linearGradient>
    <linearGradient id="linear-gradient-21" x1="619.5" y1="-1579.4" x2="648.3" y2="-1599.5" xlink:href="#linear-gradient-2"/>
    <linearGradient id="linear-gradient-22" x1="906.4" y1="-1705.7" x2="1007.4" y2="-1705.7" gradientUnits="userSpaceOnUse">
      <stop offset="0" stop-color="#39c4f3"/>
      <stop offset="1" stop-color="#242a64"/>
    </linearGradient>
    <linearGradient id="linear-gradient-23" x1="1021.7" y1="-1705.7" x2="1109.6" y2="-1705.7" xlink:href="#linear-gradient-22"/>
    <linearGradient id="linear-gradient-24" x1="1123.6" x2="1226.9" xlink:href="#linear-gradient-22"/>
    <linearGradient id="linear-gradient-25" x1="1232.6" x2="1336" xlink:href="#linear-gradient-22"/>
    <linearGradient id="linear-gradient-26" x1="1348.8" y1="-1705.7" x2="1436.7" y2="-1705.7" xlink:href="#linear-gradient-22"/>
    <linearGradient id="linear-gradient-27" x1="906.4" y1="-1705.7" x2="1436.7" y2="-1705.7" gradientUnits="userSpaceOnUse">
      <stop offset="0" stop-color="#00aae4"/>
      <stop offset="0" stop-color="#0299d5"/>
      <stop offset=".7" stop-color="#0f327b"/>
      <stop offset="1" stop-color="#150958"/>
    </linearGradient>
    <linearGradient id="linear-gradient-28" x1="929.7" y1="-1565.3" x2="1581.1" y2="-1565.3" xlink:href="#linear-gradient-3"/>
    <linearGradient id="linear-gradient-29" x1="929.7" y1="-1565.3" x2="1581.1" y2="-1565.3" xlink:href="#linear-gradient-3"/>
    <linearGradient id="linear-gradient-30" x1="929.7" y1="-1565.3" x2="1581.1" y2="-1565.3" xlink:href="#linear-gradient-3"/>
    <linearGradient id="linear-gradient-31" x1="929.7" y1="-1565.3" x2="1581.1" y2="-1565.3" xlink:href="#linear-gradient-3"/>
    <linearGradient id="linear-gradient-32" x1="929.7" y1="-1565.3" x2="1581.1" y2="-1565.3" xlink:href="#linear-gradient-3"/>
    <linearGradient id="linear-gradient-33" x1="929.7" y1="-1565.3" x2="1581.1" y2="-1565.3" xlink:href="#linear-gradient-3"/>
    <linearGradient id="linear-gradient-34" x1="929.7" y1="-1565.3" x2="1581.1" y2="-1565.3" xlink:href="#linear-gradient-3"/>
    <linearGradient id="linear-gradient-35" x1="929.7" y1="-1565.3" x2="1581.1" y2="-1565.3" xlink:href="#linear-gradient-3"/>
    <linearGradient id="linear-gradient-36" x1="929.7" y1="-1565.3" x2="1581.1" y2="-1565.3" xlink:href="#linear-gradient-3"/>
    <linearGradient id="linear-gradient-37" x1="929.7" y1="-1565.3" x2="1581.1" y2="-1565.3" xlink:href="#linear-gradient-3"/>
    <linearGradient id="linear-gradient-38" x1="929.7" y1="-1565.3" x2="1581.1" y2="-1565.3" xlink:href="#linear-gradient-3"/>
    <linearGradient id="linear-gradient-39" x1="929.7" y1="-1565.3" x2="1581.1" y2="-1565.3" xlink:href="#linear-gradient-3"/>
  </defs>
  <g>
    <g>
      <path class="cls-47" d="M-953.4-1103c14.3-46.4,17.4-96.3,9.3-144.2-14.2-5-29.5-7.8-45.4-7.8-35.8,0-68.4,13.9-92.6,36.6,19.8,6.7,38.8,17,55.3,28.4,32.3,22.4,57.5,55.1,73.4,86.9Z"/>
      <path class="cls-18" d="M-895-1216.6c-6.8,72-28.2,142.6-62.9,206.1-34.7-63-94.5-118.1-162.8-143-2.8,10.9-4.3,22.2-4.3,34,0,74.8,60.7,135.5,135.5,135.5s135.5-60.7,135.5-135.5-15.7-72.5-41-97.1Z"/>
    </g>
    <path class="cls-6" d="M-1055.2-1222.9s44.9,16.9,68.4,47.6c0,0-5.9-41-27.4-65.1,0,0-18.9,2.6-41,17.6Z"/>
    <path class="cls-29" d="M-1109.1-1085.1s16.3,62.4,82.3,86c0,0-12.7-76.9-82.3-86Z"/>
  </g>
  <path class="cls-7" d="M-342.8-1467.5l-42.8-110.4h15.8l28.7,80.2c2.3,6.4,4.2,12.5,5.8,18.1,1.7-6,3.7-12,6-18.1l29.8-80.2h14.9l-43.2,110.4h-15Z"/>
  <path class="cls-15" d="M-678.3-1131.8l13.8-1.2c.7,5.5,2.2,10.1,4.6,13.6,2.4,3.5,6.1,6.4,11.1,8.6,5,2.2,10.7,3.3,16.9,3.3s10.5-.8,14.8-2.5c4.3-1.7,7.4-3.9,9.5-6.8,2.1-2.9,3.1-6,3.1-9.5s-1-6.5-3-9.1c-2-2.6-5.3-4.8-9.9-6.5-3-1.2-9.5-2.9-19.7-5.4-10.1-2.4-17.2-4.7-21.3-6.9-5.3-2.8-9.2-6.2-11.8-10.3-2.6-4.1-3.9-8.7-3.9-13.7s1.6-10.8,4.7-15.6c3.2-4.8,7.8-8.5,13.9-11,6.1-2.5,12.8-3.8,20.3-3.8s15.4,1.3,21.7,4c6.3,2.6,11.1,6.5,14.4,11.6,3.4,5.1,5.2,10.9,5.4,17.4l-14,1.1c-.8-7-3.3-12.2-7.6-15.8-4.3-3.6-10.8-5.3-19.2-5.3s-15.3,1.6-19.3,4.9c-4,3.2-6.1,7.1-6.1,11.7s1.4,7.2,4.3,9.8c2.8,2.6,10.2,5.2,22,7.9,11.9,2.7,20,5,24.4,7,6.4,3,11.2,6.7,14.2,11.3,3.1,4.5,4.6,9.8,4.6,15.7s-1.7,11.4-5,16.6c-3.4,5.2-8.2,9.2-14.5,12.1-6.3,2.9-13.4,4.3-21.3,4.3s-18.4-1.5-25.1-4.4c-6.8-2.9-12-7.3-15.9-13.1-3.8-5.8-5.9-12.5-6.1-19.8Z"/>
  <path class="cls-15" d="M-576.4-1094.5l42.4-110.4h15.7l45.2,110.4h-16.6l-12.9-33.4h-46.2l-12.1,33.4h-15.5ZM-544.6-1139.8h37.4l-11.5-30.6c-3.5-9.3-6.1-16.9-7.8-22.9-1.4,7.1-3.4,14.1-5.9,21.1l-12.1,32.4Z"/>
  <path class="cls-15" d="M-467.4-1094.5l42.4-110.4h15.7l45.2,110.4h-16.6l-12.9-33.4h-46.2l-12.1,33.4h-15.5ZM-435.5-1139.8h37.4l-11.5-30.6c-3.5-9.3-6.1-16.9-7.8-22.9-1.4,7.1-3.4,14.1-5.9,21.1l-12.1,32.4Z"/>
  <path class="cls-15" d="M-351.2-1131.8l13.8-1.2c.7,5.5,2.2,10.1,4.6,13.6,2.4,3.5,6.1,6.4,11.1,8.6,5,2.2,10.7,3.3,16.9,3.3s10.5-.8,14.8-2.5c4.3-1.7,7.4-3.9,9.5-6.8,2.1-2.9,3.1-6,3.1-9.5s-1-6.5-3-9.1c-2-2.6-5.3-4.8-9.9-6.5-3-1.2-9.5-2.9-19.7-5.4-10.1-2.4-17.2-4.7-21.3-6.9-5.3-2.8-9.2-6.2-11.8-10.3-2.6-4.1-3.9-8.7-3.9-13.7s1.6-10.8,4.7-15.6c3.2-4.8,7.8-8.5,13.9-11,6.1-2.5,12.8-3.8,20.3-3.8s15.4,1.3,21.7,4c6.3,2.6,11.1,6.5,14.4,11.6,3.4,5.1,5.2,10.9,5.4,17.4l-14,1.1c-.8-7-3.3-12.2-7.6-15.8-4.3-3.6-10.8-5.3-19.2-5.3s-15.3,1.6-19.3,4.9c-4,3.2-6.1,7.1-6.1,11.7s1.4,7.2,4.3,9.8c2.8,2.6,10.2,5.2,22,7.9,11.9,2.7,20,5,24.4,7,6.4,3,11.2,6.7,14.2,11.3,3.1,4.5,4.6,9.8,4.6,15.7s-1.7,11.4-5,16.6c-3.4,5.2-8.2,9.2-14.5,12.1-6.3,2.9-13.4,4.3-21.3,4.3s-18.4-1.5-25.1-4.4c-6.8-2.9-12-7.3-15.9-13.1-3.8-5.8-5.9-12.5-6.1-19.8Z"/>
  <g>
    <path class="cls-33" d="M-757.8-1000.2v-33.5h-12.5v-4.5h30.2v4.5h-12.6v33.5h-5Z"/>
    <path class="cls-33" d="M-713.7-1000.2v-38h27.5v4.5h-22.5v11.7h21v4.5h-21v12.9h23.4v4.5h-28.4Z"/>
    <path class="cls-33" d="M-630-1013.6l5,1.3c-1.1,4.1-3,7.3-5.7,9.5-2.7,2.2-6.1,3.3-10.1,3.3s-7.4-.8-10-2.5c-2.6-1.7-4.5-4.1-5.9-7.3-1.3-3.2-2-6.6-2-10.2s.8-7.4,2.3-10.4,3.7-5.2,6.5-6.7c2.8-1.5,5.9-2.3,9.2-2.3s7,1,9.6,2.9c2.6,1.9,4.4,4.7,5.4,8.2l-5,1.2c-.9-2.8-2.2-4.8-3.8-6-1.7-1.3-3.8-1.9-6.3-1.9s-5.4.7-7.3,2.1c-2,1.4-3.3,3.3-4.1,5.6-.8,2.4-1.2,4.8-1.2,7.3s.5,6.1,1.4,8.5c.9,2.4,2.4,4.2,4.4,5.4,2,1.2,4.1,1.8,6.5,1.8s5.2-.8,7.2-2.4c2-1.6,3.3-4,4-7.2Z"/>
    <path class="cls-33" d="M-597.4-1000.2v-38h5v15.6h19.8v-15.6h5v38h-5v-17.9h-19.8v17.9h-5Z"/>
    <path class="cls-33" d="M-538.1-1000.2v-38h5.2l20,29.9v-29.9h4.8v38h-5.2l-20-29.9v29.9h-4.8Z"/>
    <path class="cls-33" d="M-480-1018.7c0-6.3,1.7-11.3,5.1-14.8,3.4-3.6,7.8-5.4,13.1-5.4s6.7.8,9.5,2.5c2.8,1.7,5,4,6.4,7,1.5,3,2.2,6.4,2.2,10.2s-.8,7.3-2.3,10.4c-1.6,3-3.8,5.3-6.6,6.9-2.9,1.6-5.9,2.3-9.2,2.3s-6.8-.9-9.6-2.6c-2.8-1.7-5-4.1-6.4-7.1-1.5-3-2.2-6.2-2.2-9.5ZM-474.8-1018.7c0,4.6,1.2,8.2,3.7,10.8,2.5,2.6,5.6,4,9.3,4s6.9-1.3,9.4-4c2.4-2.7,3.7-6.4,3.7-11.3s-.5-5.8-1.6-8.1c-1-2.3-2.6-4.1-4.6-5.4-2-1.3-4.3-1.9-6.8-1.9-3.6,0-6.6,1.2-9.2,3.7-2.6,2.4-3.9,6.5-3.9,12.3Z"/>
    <path class="cls-33" d="M-416.1-1000.2v-38h5v33.5h18.7v4.5h-23.8Z"/>
    <path class="cls-33" d="M-366.7-1018.7c0-6.3,1.7-11.3,5.1-14.8,3.4-3.6,7.8-5.4,13.1-5.4s6.7.8,9.5,2.5c2.8,1.7,5,4,6.4,7,1.5,3,2.2,6.4,2.2,10.2s-.8,7.3-2.3,10.4c-1.6,3-3.8,5.3-6.6,6.9-2.9,1.6-5.9,2.3-9.2,2.3s-6.8-.9-9.6-2.6c-2.8-1.7-5-4.1-6.4-7.1-1.5-3-2.2-6.2-2.2-9.5ZM-361.5-1018.7c0,4.6,1.2,8.2,3.7,10.8,2.5,2.6,5.6,4,9.3,4s6.9-1.3,9.4-4c2.4-2.7,3.7-6.4,3.7-11.3s-.5-5.8-1.6-8.1c-1-2.3-2.6-4.1-4.6-5.4-2-1.3-4.3-1.9-6.8-1.9-3.6,0-6.6,1.2-9.2,3.7-2.6,2.4-3.9,6.5-3.9,12.3Z"/>
    <path class="cls-33" d="M-284.8-1015.1v-4.5h16.1s0,14.1,0,14.1c-2.5,2-5,3.5-7.7,4.4-2.6,1-5.3,1.5-8.1,1.5s-7.1-.8-10.2-2.4c-3.1-1.6-5.4-3.9-6.9-6.9-1.6-3-2.3-6.4-2.3-10.1s.8-7.2,2.3-10.4c1.5-3.2,3.8-5.6,6.7-7.1,2.9-1.6,6.3-2.3,10-2.3s5.2.4,7.5,1.3c2.2.9,4,2.1,5.2,3.7,1.3,1.6,2.2,3.7,2.9,6.2l-4.5,1.2c-.6-1.9-1.3-3.5-2.1-4.6-.8-1.1-2.1-2-3.6-2.7-1.6-.7-3.3-1-5.2-1s-4.3.3-6,1.1c-1.7.7-3,1.6-4.1,2.8-1,1.1-1.8,2.4-2.4,3.8-1,2.4-1.5,4.9-1.5,7.7s.6,6.2,1.8,8.5c1.2,2.3,2.9,4,5.1,5.1,2.2,1.1,4.6,1.7,7.1,1.7s4.3-.4,6.4-1.3c2.1-.8,3.6-1.7,4.7-2.7v-7.1h-11.2Z"/>
    <path class="cls-33" d="M-239.2-1000.2v-38h5v38h-5Z"/>
    <path class="cls-33" d="M-204-1000.2v-38h27.5v4.5h-22.5v11.7h21v4.5h-21v12.9h23.4v4.5h-28.4Z"/>
    <path class="cls-33" d="M-149.2-1012.4l4.7-.4c.2,1.9.7,3.5,1.6,4.7s2.1,2.2,3.8,3c1.7.8,3.7,1.1,5.8,1.1s3.6-.3,5.1-.9c1.5-.6,2.6-1.4,3.3-2.3.7-1,1.1-2.1,1.1-3.3s-.3-2.2-1-3.1c-.7-.9-1.8-1.6-3.4-2.2-1-.4-3.3-1-6.8-1.9-3.5-.8-5.9-1.6-7.3-2.4-1.8-1-3.2-2.1-4.1-3.5-.9-1.4-1.3-3-1.3-4.7s.5-3.7,1.6-5.4c1.1-1.7,2.7-2.9,4.8-3.8,2.1-.9,4.4-1.3,7-1.3s5.3.5,7.5,1.4c2.2.9,3.8,2.2,5,4,1.2,1.8,1.8,3.8,1.9,6l-4.8.4c-.3-2.4-1.1-4.2-2.6-5.4-1.5-1.2-3.7-1.8-6.6-1.8s-5.3.6-6.7,1.7c-1.4,1.1-2.1,2.5-2.1,4s.5,2.5,1.5,3.4c1,.9,3.5,1.8,7.6,2.7,4.1.9,6.9,1.7,8.4,2.4,2.2,1,3.8,2.3,4.9,3.9,1.1,1.6,1.6,3.4,1.6,5.4s-.6,3.9-1.7,5.7c-1.2,1.8-2.8,3.2-5,4.2-2.2,1-4.6,1.5-7.3,1.5s-6.3-.5-8.7-1.5c-2.3-1-4.2-2.5-5.5-4.5-1.3-2-2-4.3-2.1-6.8Z"/>
  </g>
  <g>
    <g>
      <path class="cls-44" d="M-928.4-721c14.3-46.4,17.4-96.3,9.3-144.2-14.2-5-29.5-7.8-45.4-7.8-35.8,0-68.4,13.9-92.6,36.6,19.8,6.7,38.8,17,55.3,28.4,32.3,22.4,57.5,55.1,73.4,86.9Z"/>
      <path class="cls-44" d="M-870-834.6c-6.8,72-28.2,142.6-62.9,206.1-34.7-63-94.5-118.1-162.8-143-2.8,10.9-4.3,22.2-4.3,34,0,74.8,60.7,135.5,135.5,135.5s135.5-60.7,135.5-135.5-15.7-72.5-41-97.1Z"/>
    </g>
    <path class="cls-44" d="M-1030.2-840.9s44.9,16.9,68.4,47.6c0,0-5.9-41-27.4-65.1,0,0-18.9,2.6-41,17.6Z"/>
    <path class="cls-44" d="M-1084.1-703.1s16.3,62.4,82.3,86c0,0-12.7-76.9-82.3-86Z"/>
  </g>
  <g>
    <g>
      <path class="cls-44" d="M-725.8-722.5l-42.8-110.4h15.8l28.7,80.2c2.3,6.4,4.2,12.5,5.8,18.1,1.7-6,3.7-12,6-18.1l29.8-80.2h14.9l-43.2,110.4h-15Z"/>
      <path class="cls-44" d="M-653.3-757.9l13.8-1.2c.7,5.5,2.2,10.1,4.6,13.6,2.4,3.5,6.1,6.4,11.1,8.6,5,2.2,10.7,3.3,16.9,3.3s10.5-.8,14.8-2.5c4.3-1.7,7.4-3.9,9.5-6.8,2.1-2.9,3.1-6,3.1-9.5s-1-6.5-3-9.1c-2-2.6-5.3-4.8-9.9-6.5-3-1.2-9.5-2.9-19.7-5.4-10.1-2.4-17.2-4.7-21.3-6.9-5.3-2.8-9.2-6.2-11.8-10.3-2.6-4.1-3.9-8.7-3.9-13.7s1.6-10.8,4.7-15.6c3.2-4.8,7.8-8.5,13.9-11,6.1-2.5,12.8-3.8,20.3-3.8s15.4,1.3,21.7,4c6.3,2.6,11.1,6.5,14.4,11.6,3.4,5.1,5.2,10.9,5.4,17.4l-14,1.1c-.8-7-3.3-12.2-7.6-15.8-4.3-3.6-10.8-5.3-19.2-5.3s-15.3,1.6-19.3,4.9c-4,3.2-6.1,7.1-6.1,11.7s1.4,7.2,4.3,9.8c2.8,2.6,10.2,5.2,22,7.9,11.9,2.7,20,5,24.4,7,6.4,3,11.2,6.7,14.2,11.3,3.1,4.5,4.6,9.8,4.6,15.7s-1.7,11.4-5,16.6c-3.4,5.2-8.2,9.2-14.5,12.1-6.3,2.9-13.4,4.3-21.3,4.3s-18.4-1.5-25.1-4.4c-6.8-2.9-12-7.3-15.9-13.1-3.8-5.8-5.9-12.5-6.1-19.8Z"/>
      <path class="cls-44" d="M-551.4-722.5l42.4-110.4h15.7l45.2,110.4h-16.6l-12.9-33.4h-46.2l-12.1,33.4h-15.5ZM-519.6-767.8h37.4l-11.5-30.6c-3.5-9.3-6.1-16.9-7.8-22.9-1.4,7.1-3.4,14.1-5.9,21.1l-12.1,32.4Z"/>
      <path class="cls-44" d="M-442.4-722.5l42.4-110.4h15.7l45.2,110.4h-16.6l-12.9-33.4h-46.2l-12.1,33.4h-15.5ZM-410.5-767.8h37.4l-11.5-30.6c-3.5-9.3-6.1-16.9-7.8-22.9-1.4,7.1-3.4,14.1-5.9,21.1l-12.1,32.4Z"/>
      <path class="cls-44" d="M-326.2-757.9l13.8-1.2c.7,5.5,2.2,10.1,4.6,13.6,2.4,3.5,6.1,6.4,11.1,8.6,5,2.2,10.7,3.3,16.9,3.3s10.5-.8,14.8-2.5c4.3-1.7,7.4-3.9,9.5-6.8,2.1-2.9,3.1-6,3.1-9.5s-1-6.5-3-9.1c-2-2.6-5.3-4.8-9.9-6.5-3-1.2-9.5-2.9-19.7-5.4-10.1-2.4-17.2-4.7-21.3-6.9-5.3-2.8-9.2-6.2-11.8-10.3-2.6-4.1-3.9-8.7-3.9-13.7s1.6-10.8,4.7-15.6c3.2-4.8,7.8-8.5,13.9-11,6.1-2.5,12.8-3.8,20.3-3.8s15.4,1.3,21.7,4c6.3,2.6,11.1,6.5,14.4,11.6,3.4,5.1,5.2,10.9,5.4,17.4l-14,1.1c-.8-7-3.3-12.2-7.6-15.8-4.3-3.6-10.8-5.3-19.2-5.3s-15.3,1.6-19.3,4.9c-4,3.2-6.1,7.1-6.1,11.7s1.4,7.2,4.3,9.8c2.8,2.6,10.2,5.2,22,7.9,11.9,2.7,20,5,24.4,7,6.4,3,11.2,6.7,14.2,11.3,3.1,4.5,4.6,9.8,4.6,15.7s-1.7,11.4-5,16.6c-3.4,5.2-8.2,9.2-14.5,12.1-6.3,2.9-13.4,4.3-21.3,4.3s-18.4-1.5-25.1-4.4c-6.8-2.9-12-7.3-15.9-13.1-3.8-5.8-5.9-12.5-6.1-19.8Z"/>
    </g>
    <g>
      <path class="cls-44" d="M-725.8-722.5l-42.8-110.4h15.8l28.7,80.2c2.3,6.4,4.2,12.5,5.8,18.1,1.7-6,3.7-12,6-18.1l29.8-80.2h14.9l-43.2,110.4h-15Z"/>
      <path class="cls-44" d="M-653.3-757.9l13.8-1.2c.7,5.5,2.2,10.1,4.6,13.6,2.4,3.5,6.1,6.4,11.1,8.6,5,2.2,10.7,3.3,16.9,3.3s10.5-.8,14.8-2.5c4.3-1.7,7.4-3.9,9.5-6.8,2.1-2.9,3.1-6,3.1-9.5s-1-6.5-3-9.1c-2-2.6-5.3-4.8-9.9-6.5-3-1.2-9.5-2.9-19.7-5.4-10.1-2.4-17.2-4.7-21.3-6.9-5.3-2.8-9.2-6.2-11.8-10.3-2.6-4.1-3.9-8.7-3.9-13.7s1.6-10.8,4.7-15.6c3.2-4.8,7.8-8.5,13.9-11,6.1-2.5,12.8-3.8,20.3-3.8s15.4,1.3,21.7,4c6.3,2.6,11.1,6.5,14.4,11.6,3.4,5.1,5.2,10.9,5.4,17.4l-14,1.1c-.8-7-3.3-12.2-7.6-15.8-4.3-3.6-10.8-5.3-19.2-5.3s-15.3,1.6-19.3,4.9c-4,3.2-6.1,7.1-6.1,11.7s1.4,7.2,4.3,9.8c2.8,2.6,10.2,5.2,22,7.9,11.9,2.7,20,5,24.4,7,6.4,3,11.2,6.7,14.2,11.3,3.1,4.5,4.6,9.8,4.6,15.7s-1.7,11.4-5,16.6c-3.4,5.2-8.2,9.2-14.5,12.1-6.3,2.9-13.4,4.3-21.3,4.3s-18.4-1.5-25.1-4.4c-6.8-2.9-12-7.3-15.9-13.1-3.8-5.8-5.9-12.5-6.1-19.8Z"/>
      <path class="cls-44" d="M-551.4-722.5l42.4-110.4h15.7l45.2,110.4h-16.6l-12.9-33.4h-46.2l-12.1,33.4h-15.5ZM-519.6-767.8h37.4l-11.5-30.6c-3.5-9.3-6.1-16.9-7.8-22.9-1.4,7.1-3.4,14.1-5.9,21.1l-12.1,32.4Z"/>
      <path class="cls-44" d="M-442.4-722.5l42.4-110.4h15.7l45.2,110.4h-16.6l-12.9-33.4h-46.2l-12.1,33.4h-15.5ZM-410.5-767.8h37.4l-11.5-30.6c-3.5-9.3-6.1-16.9-7.8-22.9-1.4,7.1-3.4,14.1-5.9,21.1l-12.1,32.4Z"/>
      <path class="cls-44" d="M-326.2-757.9l13.8-1.2c.7,5.5,2.2,10.1,4.6,13.6,2.4,3.5,6.1,6.4,11.1,8.6,5,2.2,10.7,3.3,16.9,3.3s10.5-.8,14.8-2.5c4.3-1.7,7.4-3.9,9.5-6.8,2.1-2.9,3.1-6,3.1-9.5s-1-6.5-3-9.1c-2-2.6-5.3-4.8-9.9-6.5-3-1.2-9.5-2.9-19.7-5.4-10.1-2.4-17.2-4.7-21.3-6.9-5.3-2.8-9.2-6.2-11.8-10.3-2.6-4.1-3.9-8.7-3.9-13.7s1.6-10.8,4.7-15.6c3.2-4.8,7.8-8.5,13.9-11,6.1-2.5,12.8-3.8,20.3-3.8s15.4,1.3,21.7,4c6.3,2.6,11.1,6.5,14.4,11.6,3.4,5.1,5.2,10.9,5.4,17.4l-14,1.1c-.8-7-3.3-12.2-7.6-15.8-4.3-3.6-10.8-5.3-19.2-5.3s-15.3,1.6-19.3,4.9c-4,3.2-6.1,7.1-6.1,11.7s1.4,7.2,4.3,9.8c2.8,2.6,10.2,5.2,22,7.9,11.9,2.7,20,5,24.4,7,6.4,3,11.2,6.7,14.2,11.3,3.1,4.5,4.6,9.8,4.6,15.7s-1.7,11.4-5,16.6c-3.4,5.2-8.2,9.2-14.5,12.1-6.3,2.9-13.4,4.3-21.3,4.3s-18.4-1.5-25.1-4.4c-6.8-2.9-12-7.3-15.9-13.1-3.8-5.8-5.9-12.5-6.1-19.8Z"/>
    </g>
  </g>
  <g>
    <path class="cls-44" d="M-732.8-618.2v-33.5h-12.5v-4.5h30.2v4.5h-12.6v33.5h-5Z"/>
    <path class="cls-44" d="M-688.7-618.2v-38h27.5v4.5h-22.5v11.7h21v4.5h-21v12.9h23.4v4.5h-28.4Z"/>
    <path class="cls-44" d="M-605-631.6l5,1.3c-1.1,4.1-3,7.3-5.7,9.5-2.7,2.2-6.1,3.3-10.1,3.3s-7.4-.8-10-2.5c-2.6-1.7-4.5-4.1-5.9-7.3-1.3-3.2-2-6.6-2-10.2s.8-7.4,2.3-10.4,3.7-5.2,6.5-6.7c2.8-1.5,5.9-2.3,9.2-2.3s7,1,9.6,2.9c2.6,1.9,4.4,4.7,5.4,8.2l-5,1.2c-.9-2.8-2.2-4.8-3.8-6-1.7-1.3-3.8-1.9-6.3-1.9s-5.4.7-7.3,2.1c-2,1.4-3.3,3.3-4.1,5.6-.8,2.4-1.2,4.8-1.2,7.3s.5,6.1,1.4,8.5c.9,2.4,2.4,4.2,4.4,5.4,2,1.2,4.1,1.8,6.5,1.8s5.2-.8,7.2-2.4c2-1.6,3.3-4,4-7.2Z"/>
    <path class="cls-44" d="M-572.4-618.2v-38h5v15.6h19.8v-15.6h5v38h-5v-17.9h-19.8v17.9h-5Z"/>
    <path class="cls-44" d="M-513.1-618.2v-38h5.2l20,29.9v-29.9h4.8v38h-5.2l-20-29.9v29.9h-4.8Z"/>
    <path class="cls-44" d="M-455-636.7c0-6.3,1.7-11.3,5.1-14.8,3.4-3.6,7.8-5.4,13.1-5.4s6.7.8,9.5,2.5c2.8,1.7,5,4,6.4,7,1.5,3,2.2,6.4,2.2,10.2s-.8,7.3-2.3,10.4c-1.6,3-3.8,5.3-6.6,6.9-2.9,1.6-5.9,2.3-9.2,2.3s-6.8-.9-9.6-2.6c-2.8-1.7-5-4.1-6.4-7.1-1.5-3-2.2-6.2-2.2-9.5ZM-449.8-636.7c0,4.6,1.2,8.2,3.7,10.8,2.5,2.6,5.6,4,9.3,4s6.9-1.3,9.4-4c2.4-2.7,3.7-6.4,3.7-11.3s-.5-5.8-1.6-8.1c-1-2.3-2.6-4.1-4.6-5.4-2-1.3-4.3-1.9-6.8-1.9-3.6,0-6.6,1.2-9.2,3.7-2.6,2.4-3.9,6.5-3.9,12.3Z"/>
    <path class="cls-44" d="M-391.1-618.2v-38h5v33.5h18.7v4.5h-23.8Z"/>
    <path class="cls-44" d="M-341.7-636.7c0-6.3,1.7-11.3,5.1-14.8,3.4-3.6,7.8-5.4,13.1-5.4s6.7.8,9.5,2.5c2.8,1.7,5,4,6.4,7,1.5,3,2.2,6.4,2.2,10.2s-.8,7.3-2.3,10.4c-1.6,3-3.8,5.3-6.6,6.9-2.9,1.6-5.9,2.3-9.2,2.3s-6.8-.9-9.6-2.6c-2.8-1.7-5-4.1-6.4-7.1-1.5-3-2.2-6.2-2.2-9.5ZM-336.5-636.7c0,4.6,1.2,8.2,3.7,10.8,2.5,2.6,5.6,4,9.3,4s6.9-1.3,9.4-4c2.4-2.7,3.7-6.4,3.7-11.3s-.5-5.8-1.6-8.1c-1-2.3-2.6-4.1-4.6-5.4-2-1.3-4.3-1.9-6.8-1.9-3.6,0-6.6,1.2-9.2,3.7-2.6,2.4-3.9,6.5-3.9,12.3Z"/>
    <path class="cls-44" d="M-259.8-633.1v-4.5h16.1s0,14.1,0,14.1c-2.5,2-5,3.5-7.7,4.4-2.6,1-5.3,1.5-8.1,1.5s-7.1-.8-10.2-2.4c-3.1-1.6-5.4-3.9-6.9-6.9-1.6-3-2.3-6.4-2.3-10.1s.8-7.2,2.3-10.4c1.5-3.2,3.8-5.6,6.7-7.1,2.9-1.6,6.3-2.3,10-2.3s5.2.4,7.5,1.3c2.2.9,4,2.1,5.2,3.7,1.3,1.6,2.2,3.7,2.9,6.2l-4.5,1.2c-.6-1.9-1.3-3.5-2.1-4.6-.8-1.1-2.1-2-3.6-2.7-1.6-.7-3.3-1-5.2-1s-4.3.3-6,1.1c-1.7.7-3,1.6-4.1,2.8-1,1.1-1.8,2.4-2.4,3.8-1,2.4-1.5,4.9-1.5,7.7s.6,6.2,1.8,8.5c1.2,2.3,2.9,4,5.1,5.1,2.2,1.1,4.6,1.7,7.1,1.7s4.3-.4,6.4-1.3c2.1-.8,3.6-1.7,4.7-2.7v-7.1h-11.2Z"/>
    <path class="cls-44" d="M-214.2-618.2v-38h5v38h-5Z"/>
    <path class="cls-44" d="M-179-618.2v-38h27.5v4.5h-22.5v11.7h21v4.5h-21v12.9h23.4v4.5h-28.4Z"/>
    <path class="cls-44" d="M-124.2-630.4l4.7-.4c.2,1.9.7,3.5,1.6,4.7s2.1,2.2,3.8,3c1.7.8,3.7,1.1,5.8,1.1s3.6-.3,5.1-.9c1.5-.6,2.6-1.4,3.3-2.3.7-1,1.1-2.1,1.1-3.3s-.3-2.2-1-3.1c-.7-.9-1.8-1.6-3.4-2.2-1-.4-3.3-1-6.8-1.9-3.5-.8-5.9-1.6-7.3-2.4-1.8-1-3.2-2.1-4.1-3.5-.9-1.4-1.3-3-1.3-4.7s.5-3.7,1.6-5.4c1.1-1.7,2.7-2.9,4.8-3.8,2.1-.9,4.4-1.3,7-1.3s5.3.5,7.5,1.4c2.2.9,3.8,2.2,5,4,1.2,1.8,1.8,3.8,1.9,6l-4.8.4c-.3-2.4-1.1-4.2-2.6-5.4-1.5-1.2-3.7-1.8-6.6-1.8s-5.3.6-6.7,1.7c-1.4,1.1-2.1,2.5-2.1,4s.5,2.5,1.5,3.4c1,.9,3.5,1.8,7.6,2.7,4.1.9,6.9,1.7,8.4,2.4,2.2,1,3.8,2.3,4.9,3.9,1.1,1.6,1.6,3.4,1.6,5.4s-.6,3.9-1.7,5.7c-1.2,1.8-2.8,3.2-5,4.2-2.2,1-4.6,1.5-7.3,1.5s-6.3-.5-8.7-1.5c-2.3-1-4.2-2.5-5.5-4.5-1.3-2-2-4.3-2.1-6.8Z"/>
  </g>
  <g>
    <g>
      <path class="cls-8" d="M-914.4-301c14.3-46.4,17.4-96.3,9.3-144.2-14.2-5-29.5-7.8-45.4-7.8-35.8,0-68.4,13.9-92.6,36.6,19.8,6.7,38.8,17,55.3,28.4,32.3,22.4,57.5,55.1,73.4,86.9Z"/>
      <path class="cls-8" d="M-856-414.6c-6.8,72-28.2,142.6-62.9,206.1-34.7-63-94.5-118.1-162.8-143-2.8,10.9-4.3,22.2-4.3,34,0,74.8,60.7,135.5,135.5,135.5s135.5-60.7,135.5-135.5-15.7-72.5-41-97.1Z"/>
    </g>
    <path class="cls-8" d="M-1016.2-420.9s44.9,16.9,68.4,47.6c0,0-5.9-41-27.4-65.1,0,0-18.9,2.6-41,17.6Z"/>
    <path class="cls-8" d="M-1070.1-283.1s16.3,62.4,82.3,86c0,0-12.7-76.9-82.3-86Z"/>
  </g>
  <path class="cls-8" d="M-711.8-302.5l-42.8-110.4h15.8l28.7,80.2c2.3,6.4,4.2,12.5,5.8,18.1,1.7-6,3.7-12,6-18.1l29.8-80.2h14.9l-43.2,110.4h-15Z"/>
  <path class="cls-8" d="M-639.3-337.9l13.8-1.2c.7,5.5,2.2,10.1,4.6,13.6,2.4,3.5,6.1,6.4,11.1,8.6,5,2.2,10.7,3.3,16.9,3.3s10.5-.8,14.8-2.5c4.3-1.7,7.4-3.9,9.5-6.8,2.1-2.9,3.1-6,3.1-9.5s-1-6.5-3-9.1c-2-2.6-5.3-4.8-9.9-6.5-3-1.2-9.5-2.9-19.7-5.4-10.1-2.4-17.2-4.7-21.3-6.9-5.3-2.8-9.2-6.2-11.8-10.3-2.6-4.1-3.9-8.7-3.9-13.7s1.6-10.8,4.7-15.6c3.2-4.8,7.8-8.5,13.9-11,6.1-2.5,12.8-3.8,20.3-3.8s15.4,1.3,21.7,4c6.3,2.6,11.1,6.5,14.4,11.6,3.4,5.1,5.2,10.9,5.4,17.4l-14,1.1c-.8-7-3.3-12.2-7.6-15.8-4.3-3.6-10.8-5.3-19.2-5.3s-15.3,1.6-19.3,4.9c-4,3.2-6.1,7.1-6.1,11.7s1.4,7.2,4.3,9.8c2.8,2.6,10.2,5.2,22,7.9,11.9,2.7,20,5,24.4,7,6.4,3,11.2,6.7,14.2,11.3,3.1,4.5,4.6,9.8,4.6,15.7s-1.7,11.4-5,16.6c-3.4,5.2-8.2,9.2-14.5,12.1-6.3,2.9-13.4,4.3-21.3,4.3s-18.4-1.5-25.1-4.4c-6.8-2.9-12-7.3-15.9-13.1-3.8-5.8-5.9-12.5-6.1-19.8Z"/>
  <path class="cls-8" d="M-537.4-302.5l42.4-110.4h15.7l45.2,110.4h-16.6l-12.9-33.4h-46.2l-12.1,33.4h-15.5ZM-505.6-347.8h37.4l-11.5-30.6c-3.5-9.3-6.1-16.9-7.8-22.9-1.4,7.1-3.4,14.1-5.9,21.1l-12.1,32.4Z"/>
  <path class="cls-8" d="M-428.4-302.5l42.4-110.4h15.7l45.2,110.4h-16.6l-12.9-33.4h-46.2l-12.1,33.4h-15.5ZM-396.5-347.8h37.4l-11.5-30.6c-3.5-9.3-6.1-16.9-7.8-22.9-1.4,7.1-3.4,14.1-5.9,21.1l-12.1,32.4Z"/>
  <path class="cls-8" d="M-312.2-337.9l13.8-1.2c.7,5.5,2.2,10.1,4.6,13.6,2.4,3.5,6.1,6.4,11.1,8.6,5,2.2,10.7,3.3,16.9,3.3s10.5-.8,14.8-2.5c4.3-1.7,7.4-3.9,9.5-6.8,2.1-2.9,3.1-6,3.1-9.5s-1-6.5-3-9.1c-2-2.6-5.3-4.8-9.9-6.5-3-1.2-9.5-2.9-19.7-5.4-10.1-2.4-17.2-4.7-21.3-6.9-5.3-2.8-9.2-6.2-11.8-10.3-2.6-4.1-3.9-8.7-3.9-13.7s1.6-10.8,4.7-15.6c3.2-4.8,7.8-8.5,13.9-11,6.1-2.5,12.8-3.8,20.3-3.8s15.4,1.3,21.7,4c6.3,2.6,11.1,6.5,14.4,11.6,3.4,5.1,5.2,10.9,5.4,17.4l-14,1.1c-.8-7-3.3-12.2-7.6-15.8-4.3-3.6-10.8-5.3-19.2-5.3s-15.3,1.6-19.3,4.9c-4,3.2-6.1,7.1-6.1,11.7s1.4,7.2,4.3,9.8c2.8,2.6,10.2,5.2,22,7.9,11.9,2.7,20,5,24.4,7,6.4,3,11.2,6.7,14.2,11.3,3.1,4.5,4.6,9.8,4.6,15.7s-1.7,11.4-5,16.6c-3.4,5.2-8.2,9.2-14.5,12.1-6.3,2.9-13.4,4.3-21.3,4.3s-18.4-1.5-25.1-4.4c-6.8-2.9-12-7.3-15.9-13.1-3.8-5.8-5.9-12.5-6.1-19.8Z"/>
  <g>
    <path class="cls-8" d="M-718.8-198.2v-33.5h-12.5v-4.5h30.2v4.5h-12.6v33.5h-5Z"/>
    <path class="cls-8" d="M-674.7-198.2v-38h27.5v4.5h-22.5v11.7h21v4.5h-21v12.9h23.4v4.5h-28.4Z"/>
    <path class="cls-8" d="M-591-211.6l5,1.3c-1.1,4.1-3,7.3-5.7,9.5-2.7,2.2-6.1,3.3-10.1,3.3s-7.4-.8-10-2.5c-2.6-1.7-4.5-4.1-5.9-7.3-1.3-3.2-2-6.6-2-10.2s.8-7.4,2.3-10.4,3.7-5.2,6.5-6.7c2.8-1.5,5.9-2.3,9.2-2.3s7,1,9.6,2.9c2.6,1.9,4.4,4.7,5.4,8.2l-5,1.2c-.9-2.8-2.2-4.8-3.8-6-1.7-1.3-3.8-1.9-6.3-1.9s-5.4.7-7.3,2.1c-2,1.4-3.3,3.3-4.1,5.6-.8,2.4-1.2,4.8-1.2,7.3s.5,6.1,1.4,8.5c.9,2.4,2.4,4.2,4.4,5.4,2,1.2,4.1,1.8,6.5,1.8s5.2-.8,7.2-2.4c2-1.6,3.3-4,4-7.2Z"/>
    <path class="cls-8" d="M-558.4-198.2v-38h5v15.6h19.8v-15.6h5v38h-5v-17.9h-19.8v17.9h-5Z"/>
    <path class="cls-8" d="M-499.1-198.2v-38h5.2l20,29.9v-29.9h4.8v38h-5.2l-20-29.9v29.9h-4.8Z"/>
    <path class="cls-8" d="M-441-216.7c0-6.3,1.7-11.3,5.1-14.8,3.4-3.6,7.8-5.4,13.1-5.4s6.7.8,9.5,2.5c2.8,1.7,5,4,6.4,7,1.5,3,2.2,6.4,2.2,10.2s-.8,7.3-2.3,10.4c-1.6,3-3.8,5.3-6.6,6.9-2.9,1.6-5.9,2.3-9.2,2.3s-6.8-.9-9.6-2.6c-2.8-1.7-5-4.1-6.4-7.1-1.5-3-2.2-6.2-2.2-9.5ZM-435.8-216.7c0,4.6,1.2,8.2,3.7,10.8,2.5,2.6,5.6,4,9.3,4s6.9-1.3,9.4-4c2.4-2.7,3.7-6.4,3.7-11.3s-.5-5.8-1.6-8.1c-1-2.3-2.6-4.1-4.6-5.4-2-1.3-4.3-1.9-6.8-1.9-3.6,0-6.6,1.2-9.2,3.7-2.6,2.4-3.9,6.5-3.9,12.3Z"/>
    <path class="cls-8" d="M-377.1-198.2v-38h5v33.5h18.7v4.5h-23.8Z"/>
    <path class="cls-8" d="M-327.7-216.7c0-6.3,1.7-11.3,5.1-14.8,3.4-3.6,7.8-5.4,13.1-5.4s6.7.8,9.5,2.5c2.8,1.7,5,4,6.4,7,1.5,3,2.2,6.4,2.2,10.2s-.8,7.3-2.3,10.4c-1.6,3-3.8,5.3-6.6,6.9-2.9,1.6-5.9,2.3-9.2,2.3s-6.8-.9-9.6-2.6c-2.8-1.7-5-4.1-6.4-7.1-1.5-3-2.2-6.2-2.2-9.5ZM-322.5-216.7c0,4.6,1.2,8.2,3.7,10.8,2.5,2.6,5.6,4,9.3,4s6.9-1.3,9.4-4c2.4-2.7,3.7-6.4,3.7-11.3s-.5-5.8-1.6-8.1c-1-2.3-2.6-4.1-4.6-5.4-2-1.3-4.3-1.9-6.8-1.9-3.6,0-6.6,1.2-9.2,3.7-2.6,2.4-3.9,6.5-3.9,12.3Z"/>
    <path class="cls-8" d="M-245.8-213.1v-4.5h16.1s0,14.1,0,14.1c-2.5,2-5,3.5-7.7,4.4-2.6,1-5.3,1.5-8.1,1.5s-7.1-.8-10.2-2.4c-3.1-1.6-5.4-3.9-6.9-6.9-1.6-3-2.3-6.4-2.3-10.1s.8-7.2,2.3-10.4c1.5-3.2,3.8-5.6,6.7-7.1,2.9-1.6,6.3-2.3,10-2.3s5.2.4,7.5,1.3c2.2.9,4,2.1,5.2,3.7,1.3,1.6,2.2,3.7,2.9,6.2l-4.5,1.2c-.6-1.9-1.3-3.5-2.1-4.6-.8-1.1-2.1-2-3.6-2.7-1.6-.7-3.3-1-5.2-1s-4.3.3-6,1.1c-1.7.7-3,1.6-4.1,2.8-1,1.1-1.8,2.4-2.4,3.8-1,2.4-1.5,4.9-1.5,7.7s.6,6.2,1.8,8.5c1.2,2.3,2.9,4,5.1,5.1,2.2,1.1,4.6,1.7,7.1,1.7s4.3-.4,6.4-1.3c2.1-.8,3.6-1.7,4.7-2.7v-7.1h-11.2Z"/>
    <path class="cls-8" d="M-200.2-198.2v-38h5v38h-5Z"/>
    <path class="cls-8" d="M-165-198.2v-38h27.5v4.5h-22.5v11.7h21v4.5h-21v12.9h23.4v4.5h-28.4Z"/>
    <path class="cls-8" d="M-110.2-210.4l4.7-.4c.2,1.9.7,3.5,1.6,4.7s2.1,2.2,3.8,3c1.7.8,3.7,1.1,5.8,1.1s3.6-.3,5.1-.9c1.5-.6,2.6-1.4,3.3-2.3.7-1,1.1-2.1,1.1-3.3s-.3-2.2-1-3.1c-.7-.9-1.8-1.6-3.4-2.2-1-.4-3.3-1-6.8-1.9-3.5-.8-5.9-1.6-7.3-2.4-1.8-1-3.2-2.1-4.1-3.5-.9-1.4-1.3-3-1.3-4.7s.5-3.7,1.6-5.4c1.1-1.7,2.7-2.9,4.8-3.8,2.1-.9,4.4-1.3,7-1.3s5.3.5,7.5,1.4c2.2.9,3.8,2.2,5,4,1.2,1.8,1.8,3.8,1.9,6l-4.8.4c-.3-2.4-1.1-4.2-2.6-5.4-1.5-1.2-3.7-1.8-6.6-1.8s-5.3.6-6.7,1.7c-1.4,1.1-2.1,2.5-2.1,4s.5,2.5,1.5,3.4c1,.9,3.5,1.8,7.6,2.7,4.1.9,6.9,1.7,8.4,2.4,2.2,1,3.8,2.3,4.9,3.9,1.1,1.6,1.6,3.4,1.6,5.4s-.6,3.9-1.7,5.7c-1.2,1.8-2.8,3.2-5,4.2-2.2,1-4.6,1.5-7.3,1.5s-6.3-.5-8.7-1.5c-2.3-1-4.2-2.5-5.5-4.5-1.3-2-2-4.3-2.1-6.8Z"/>
  </g>
  <text class="cls-54" transform="translate(-2575.5 -608.5)"><tspan class="cls-56" x="0" y="0">V</tspan><tspan class="cls-55" x="109" y="0">SAAS</tspan></text>
  <path class="cls-8" d="M-2964-873.5l-39.5-110.4h24.2l27.9,81.7,27-81.7h23.6l-39.5,110.4h-23.8Z"/>
  <path class="cls-49" d="M-752-1094.5l-39.5-110.4h24.2l27.9,81.7,27-81.7h23.6l-39.5,110.4h-23.8Z"/>
  <g>
    <g>
      <path class="cls-47" d="M333.6,244.6c14.3-46.4,17.4-96.3,9.3-144.2-14.2-5-29.5-7.8-45.4-7.8-35.8,0-68.4,13.9-92.6,36.6,19.8,6.7,38.8,17,55.3,28.4,32.3,22.4,57.5,55.1,73.4,86.9Z"/>
      <path class="cls-11" d="M392,131.1c-6.8,72-28.2,142.6-62.9,206.1-34.7-63-94.5-118.1-162.8-143-2.8,10.9-4.3,22.2-4.3,34,0,74.8,60.7,135.5,135.5,135.5s135.5-60.7,135.5-135.5-15.7-72.5-41-97.1Z"/>
    </g>
    <path class="cls-14" d="M231.8,124.7s44.9,16.9,68.4,47.6c0,0-5.9-41-27.4-65.1,0,0-18.9,2.6-41,17.6Z"/>
    <path class="cls-10" d="M177.9,262.6s16.3,62.4,82.3,86c0,0-12.7-76.9-82.3-86Z"/>
  </g>
  <g>
    <g>
      <path class="cls-31" d="M508.1,332.1v-33.5h-12.5v-4.5h30.2v4.5h-12.6v33.5h-5Z"/>
      <path class="cls-39" d="M552.1,332.1v-38h27.5v4.5h-22.5v11.7h21v4.5h-21v12.9h23.4v4.5h-28.4Z"/>
      <path class="cls-35" d="M635.8,318.8l5,1.3c-1.1,4.1-3,7.3-5.7,9.5-2.7,2.2-6.1,3.3-10.1,3.3s-7.4-.8-10-2.5c-2.6-1.7-4.5-4.1-5.9-7.3-1.3-3.2-2-6.6-2-10.2s.8-7.4,2.3-10.4,3.7-5.2,6.5-6.7c2.8-1.5,5.9-2.3,9.2-2.3s7,1,9.6,2.9c2.6,1.9,4.4,4.7,5.4,8.2l-5,1.2c-.9-2.8-2.2-4.8-3.8-6-1.7-1.3-3.8-1.9-6.3-1.9s-5.4.7-7.3,2.1c-2,1.4-3.3,3.3-4.1,5.6-.8,2.4-1.2,4.8-1.2,7.3s.5,6.1,1.4,8.5c.9,2.4,2.4,4.2,4.4,5.4,2,1.2,4.1,1.8,6.5,1.8s5.2-.8,7.2-2.4c2-1.6,3.3-4,4-7.2Z"/>
      <path class="cls-48" d="M668.4,332.1v-38h5v15.6h19.8v-15.6h5v38h-5v-17.9h-19.8v17.9h-5Z"/>
      <path class="cls-13" d="M727.8,332.1v-38h5.2l20,29.9v-29.9h4.8v38h-5.2l-20-29.9v29.9h-4.8Z"/>
      <path class="cls-2" d="M785.9,313.6c0-6.3,1.7-11.3,5.1-14.8,3.4-3.6,7.8-5.4,13.1-5.4s6.7.8,9.5,2.5c2.8,1.7,5,4,6.4,7,1.5,3,2.2,6.4,2.2,10.2s-.8,7.3-2.3,10.4c-1.6,3-3.8,5.3-6.6,6.9-2.9,1.6-5.9,2.3-9.2,2.3s-6.8-.9-9.6-2.6c-2.8-1.7-5-4.1-6.4-7.1-1.5-3-2.2-6.2-2.2-9.5ZM791.1,313.6c0,4.6,1.2,8.2,3.7,10.8,2.5,2.6,5.6,4,9.3,4s6.9-1.3,9.4-4c2.4-2.7,3.7-6.4,3.7-11.3s-.5-5.8-1.6-8.1c-1-2.3-2.6-4.1-4.6-5.4-2-1.3-4.3-1.9-6.8-1.9-3.6,0-6.6,1.2-9.2,3.7-2.6,2.4-3.9,6.5-3.9,12.3Z"/>
      <path class="cls-20" d="M849.7,332.1v-38h5v33.5h18.7v4.5h-23.8Z"/>
      <path class="cls-28" d="M899.2,313.6c0-6.3,1.7-11.3,5.1-14.8,3.4-3.6,7.8-5.4,13.1-5.4s6.7.8,9.5,2.5c2.8,1.7,5,4,6.4,7,1.5,3,2.2,6.4,2.2,10.2s-.8,7.3-2.3,10.4c-1.6,3-3.8,5.3-6.6,6.9-2.9,1.6-5.9,2.3-9.2,2.3s-6.8-.9-9.6-2.6c-2.8-1.7-5-4.1-6.4-7.1-1.5-3-2.2-6.2-2.2-9.5ZM904.4,313.6c0,4.6,1.2,8.2,3.7,10.8,2.5,2.6,5.6,4,9.3,4s6.9-1.3,9.4-4c2.4-2.7,3.7-6.4,3.7-11.3s-.5-5.8-1.6-8.1c-1-2.3-2.6-4.1-4.6-5.4-2-1.3-4.3-1.9-6.8-1.9-3.6,0-6.6,1.2-9.2,3.7-2.6,2.4-3.9,6.5-3.9,12.3Z"/>
      <path class="cls-12" d="M981,317.2v-4.5h16.1s0,14.1,0,14.1c-2.5,2-5,3.5-7.7,4.4-2.6,1-5.3,1.5-8.1,1.5s-7.1-.8-10.2-2.4c-3.1-1.6-5.4-3.9-6.9-6.9-1.6-3-2.3-6.4-2.3-10.1s.8-7.2,2.3-10.4c1.5-3.2,3.8-5.6,6.7-7.1,2.9-1.6,6.3-2.3,10-2.3s5.2.4,7.5,1.3c2.2.9,4,2.1,5.2,3.7,1.3,1.6,2.2,3.7,2.9,6.2l-4.5,1.2c-.6-1.9-1.3-3.5-2.1-4.6-.8-1.1-2.1-2-3.6-2.7-1.6-.7-3.3-1-5.2-1s-4.3.3-6,1.1c-1.7.7-3,1.6-4.1,2.8-1,1.1-1.8,2.4-2.4,3.8-1,2.4-1.5,4.9-1.5,7.7s.6,6.2,1.8,8.5c1.2,2.3,2.9,4,5.1,5.1,2.2,1.1,4.6,1.7,7.1,1.7s4.3-.4,6.4-1.3c2.1-.8,3.6-1.7,4.7-2.7v-7.1h-11.2Z"/>
      <path class="cls-23" d="M1026.6,332.1v-38h5v38h-5Z"/>
      <path class="cls-3" d="M1061.9,332.1v-38h27.5v4.5h-22.5v11.7h21v4.5h-21v12.9h23.4v4.5h-28.4Z"/>
      <path class="cls-42" d="M1116.7,319.9l4.7-.4c.2,1.9.7,3.5,1.6,4.7s2.1,2.2,3.8,3c1.7.8,3.7,1.1,5.8,1.1s3.6-.3,5.1-.9c1.5-.6,2.6-1.4,3.3-2.3.7-1,1.1-2.1,1.1-3.3s-.3-2.2-1-3.1c-.7-.9-1.8-1.6-3.4-2.2-1-.4-3.3-1-6.8-1.9-3.5-.8-5.9-1.6-7.3-2.4-1.8-1-3.2-2.1-4.1-3.5-.9-1.4-1.3-3-1.3-4.7s.5-3.7,1.6-5.4c1.1-1.7,2.7-2.9,4.8-3.8,2.1-.9,4.4-1.3,7-1.3s5.3.5,7.5,1.4c2.2.9,3.8,2.2,5,4,1.2,1.8,1.8,3.8,1.9,6l-4.8.4c-.3-2.4-1.1-4.2-2.6-5.4-1.5-1.2-3.7-1.8-6.6-1.8s-5.3.6-6.7,1.7c-1.4,1.1-2.1,2.5-2.1,4s.5,2.5,1.5,3.4c1,.9,3.5,1.8,7.6,2.7,4.1.9,6.9,1.7,8.4,2.4,2.2,1,3.8,2.3,4.9,3.9,1.1,1.6,1.6,3.4,1.6,5.4s-.6,3.9-1.7,5.7c-1.2,1.8-2.8,3.2-5,4.2-2.2,1-4.6,1.5-7.3,1.5s-6.3-.5-8.7-1.5c-2.3-1-4.2-2.5-5.5-4.5-1.3-2-2-4.3-2.1-6.8Z"/>
    </g>
    <g>
      <path class="cls-15" d="M608.7,200.5l13.8-1.2c.7,5.5,2.2,10.1,4.6,13.6,2.4,3.5,6.1,6.4,11.1,8.6,5,2.2,10.7,3.3,16.9,3.3s10.5-.8,14.8-2.5c4.3-1.7,7.4-3.9,9.5-6.8,2.1-2.9,3.1-6,3.1-9.5s-1-6.5-3-9.1c-2-2.6-5.3-4.8-9.9-6.5-3-1.2-9.5-2.9-19.7-5.4-10.1-2.4-17.2-4.7-21.3-6.9-5.3-2.8-9.2-6.2-11.8-10.3-2.6-4.1-3.9-8.7-3.9-13.7s1.6-10.8,4.7-15.6c3.2-4.8,7.8-8.5,13.9-11,6.1-2.5,12.8-3.8,20.3-3.8s15.4,1.3,21.7,4c6.3,2.6,11.1,6.5,14.4,11.6,3.4,5.1,5.2,10.9,5.4,17.4l-14,1.1c-.8-7-3.3-12.2-7.6-15.8-4.3-3.6-10.8-5.3-19.2-5.3s-15.3,1.6-19.3,4.9c-4,3.2-6.1,7.1-6.1,11.7s1.4,7.2,4.3,9.8c2.8,2.6,10.2,5.2,22,7.9,11.9,2.7,20,5,24.4,7,6.4,3,11.2,6.7,14.2,11.3,3.1,4.5,4.6,9.8,4.6,15.7s-1.7,11.4-5,16.6c-3.4,5.2-8.2,9.2-14.5,12.1-6.3,2.9-13.4,4.3-21.3,4.3s-18.4-1.5-25.1-4.4c-6.8-2.9-12-7.3-15.9-13.1-3.8-5.8-5.9-12.5-6.1-19.8Z"/>
      <path class="cls-15" d="M710.6,237.8l42.4-110.4h15.7l45.2,110.4h-16.6l-12.9-33.4h-46.2l-12.1,33.4h-15.5ZM742.4,192.5h37.4l-11.5-30.6c-3.5-9.3-6.1-16.9-7.8-22.9-1.4,7.1-3.4,14.1-5.9,21.1l-12.1,32.4Z"/>
      <path class="cls-15" d="M819.6,237.8l42.4-110.4h15.7l45.2,110.4h-16.6l-12.9-33.4h-46.2l-12.1,33.4h-15.5ZM851.5,192.5h37.4l-11.5-30.6c-3.5-9.3-6.1-16.9-7.8-22.9-1.4,7.1-3.4,14.1-5.9,21.1l-12.1,32.4Z"/>
      <path class="cls-15" d="M935.8,200.5l13.8-1.2c.7,5.5,2.2,10.1,4.6,13.6,2.4,3.5,6.1,6.4,11.1,8.6,5,2.2,10.7,3.3,16.9,3.3s10.5-.8,14.8-2.5c4.3-1.7,7.4-3.9,9.5-6.8,2.1-2.9,3.1-6,3.1-9.5s-1-6.5-3-9.1c-2-2.6-5.3-4.8-9.9-6.5-3-1.2-9.5-2.9-19.7-5.4-10.1-2.4-17.2-4.7-21.3-6.9-5.3-2.8-9.2-6.2-11.8-10.3-2.6-4.1-3.9-8.7-3.9-13.7s1.6-10.8,4.7-15.6c3.2-4.8,7.8-8.5,13.9-11,6.1-2.5,12.8-3.8,20.3-3.8s15.4,1.3,21.7,4c6.3,2.6,11.1,6.5,14.4,11.6,3.4,5.1,5.2,10.9,5.4,17.4l-14,1.1c-.8-7-3.3-12.2-7.6-15.8-4.3-3.6-10.8-5.3-19.2-5.3s-15.3,1.6-19.3,4.9c-4,3.2-6.1,7.1-6.1,11.7s1.4,7.2,4.3,9.8c2.8,2.6,10.2,5.2,22,7.9,11.9,2.7,20,5,24.4,7,6.4,3,11.2,6.7,14.2,11.3,3.1,4.5,4.6,9.8,4.6,15.7s-1.7,11.4-5,16.6c-3.4,5.2-8.2,9.2-14.5,12.1-6.3,2.9-13.4,4.3-21.3,4.3s-18.4-1.5-25.1-4.4c-6.8-2.9-12-7.3-15.9-13.1-3.8-5.8-5.9-12.5-6.1-19.8Z"/>
      <path class="cls-4" d="M535,237.8l-39.5-110.4h24.2l27.9,81.7,27-81.7h23.6l-39.5,110.4h-23.8Z"/>
    </g>
  </g>
  <text class="cls-53" transform="translate(-2793.3 -504.2)"><tspan x="0" y="0">VSAAS TECHNOLOGIES</tspan></text>
  <text class="cls-52" transform="translate(-2610.5 -74.5)"><tspan x="0" y="0">VSAAS</tspan></text>
  <text class="cls-53" transform="translate(-2828.3 29.8)"><tspan x="0" y="0">VSAAS TECHNOLOGIES</tspan></text>
  <path class="cls-30" d="M1829.8,691.9c5.7,0,11,0,16.3,0,5.7,0,11.5,0,17.2,0,2.3,0,3.4.8,4.3,2.9,13.6,33.9,27.3,67.8,41.1,101.6.3.7.7,1.4,1.3,2.7.7-1.3,1.3-2.2,1.8-3.1,11.1-21.5,22.1-43,33.2-64.4,11.8-22.7,30.2-36.4,55.5-40.6,3.9-.6,7.9-.9,11.9-.9,29.4,0,58.7.3,88.1.4,14.6,0,25.9,14.4,21.6,30.2-.7,2.6-2,3.5-4.8,3.5-34,0-68,0-102,.1-7.8,0-15.3,1-22.3,4.8-7.4,4.1-12.9,9.9-16.7,17.5-19.7,38.8-39.5,77.5-59.3,116.3-1.7,3.4-3.9,6-7.7,6.8-5.1,1.1-9.6-1.6-11.8-7-8.6-21.6-17.1-43.2-25.7-64.8-10.5-26.3-21-52.7-31.5-79-3.3-8.3-6.6-16.5-9.9-24.8-.2-.6-.3-1.2-.6-2.3Z"/>
  <path class="cls-37" d="M2044.3,800.6h-77.1c.4-1.2.6-1.9,1-2.6,5.1-9.9,10.2-19.9,15.2-29.8,1-1.9,2.1-2.6,4.3-2.6,36.8,0,73.7,0,110.5,0,.9,0,1.8.1,3.2.2-.6,1.3-.9,2.3-1.4,3.3-10.4,20.2-20.4,40.6-31.2,60.6-14.1,26.3-36.6,39.6-66.3,40.1-22.1.4-44.2,0-66.3,0-1.3,0-2.6-.1-4.3-.2.5-1.2.8-2.1,1.3-2.8,12.4-20.2,30.4-30.9,54.1-31.9,5.3-.2,10.6,0,16,0,15.3-.5,26.7-7.4,34.3-20.7,2.4-4.1,4.3-8.5,6.9-13.6Z"/>
  <rect class="cls-19" x="327" y="-1315" width="1455" height="442"/>
  <rect class="cls-19" x="327" y="-764" width="1455" height="442"/>
  <rect class="cls-19" x="322" y="-1887" width="1455" height="442"/>
  <g>
    <g>
      <path class="cls-34" d="M746.6-1649c14.3-46.4,17.4-96.3,9.3-144.2-14.2-5-29.5-7.8-45.4-7.8-35.8,0-68.4,13.9-92.6,36.6,19.8,6.7,38.8,17,55.3,28.4,32.3,22.4,57.5,55.1,73.4,86.9Z"/>
      <path class="cls-50" d="M805-1762.6c-6.8,72-28.2,142.6-62.9,206.1-34.7-63-94.5-118.1-162.8-143-2.8,10.9-4.3,22.2-4.3,34,0,74.8,60.7,135.5,135.5,135.5s135.5-60.7,135.5-135.5-15.7-72.5-41-97.1Z"/>
    </g>
    <path class="cls-27" d="M644.8-1768.9s44.9,16.9,68.4,47.6c0,0-5.9-41-27.4-65.1,0,0-18.9,2.6-41,17.6Z"/>
    <path class="cls-9" d="M590.9-1631.1s16.3,62.4,82.3,86c0,0-12.7-76.9-82.3-86Z"/>
  </g>
  <g>
    <g>
      <path class="cls-24" d="M949.2-1650.5l-42.8-110.4h15.8l28.7,80.2c2.3,6.4,4.2,12.5,5.8,18.1,1.7-6,3.7-12,6-18.1l29.8-80.2h14.9l-43.2,110.4h-15Z"/>
      <path class="cls-21" d="M1021.7-1685.9l13.8-1.2c.7,5.5,2.2,10.1,4.6,13.6,2.4,3.5,6.1,6.4,11.1,8.6,5,2.2,10.7,3.3,16.9,3.3s10.5-.8,14.8-2.5c4.3-1.7,7.4-3.9,9.5-6.8,2.1-2.9,3.1-6,3.1-9.5s-1-6.5-3-9.1c-2-2.6-5.3-4.8-9.9-6.5-3-1.2-9.5-2.9-19.7-5.4-10.1-2.4-17.2-4.7-21.3-6.9-5.3-2.8-9.2-6.2-11.8-10.3-2.6-4.1-3.9-8.7-3.9-13.7s1.6-10.8,4.7-15.6c3.2-4.8,7.8-8.5,13.9-11,6.1-2.5,12.8-3.8,20.3-3.8s15.4,1.3,21.7,4c6.3,2.6,11.1,6.5,14.4,11.6,3.4,5.1,5.2,10.9,5.4,17.4l-14,1.1c-.8-7-3.3-12.2-7.6-15.8-4.3-3.6-10.8-5.3-19.2-5.3s-15.3,1.6-19.3,4.9c-4,3.2-6.1,7.1-6.1,11.7s1.4,7.2,4.3,9.8c2.8,2.6,10.2,5.2,22,7.9,11.9,2.7,20,5,24.4,7,6.4,3,11.2,6.7,14.2,11.3,3.1,4.5,4.6,9.8,4.6,15.7s-1.7,11.4-5,16.6c-3.4,5.2-8.2,9.2-14.5,12.1-6.3,2.9-13.4,4.3-21.3,4.3s-18.4-1.5-25.1-4.4c-6.8-2.9-12-7.3-15.9-13.1-3.8-5.8-5.9-12.5-6.1-19.8Z"/>
      <path class="cls-40" d="M1123.6-1650.5l42.4-110.4h15.7l45.2,110.4h-16.6l-12.9-33.4h-46.2l-12.1,33.4h-15.5ZM1155.4-1695.8h37.4l-11.5-30.6c-3.5-9.3-6.1-16.9-7.8-22.9-1.4,7.1-3.4,14.1-5.9,21.1l-12.1,32.4Z"/>
      <path class="cls-22" d="M1232.6-1650.5l42.4-110.4h15.7l45.2,110.4h-16.6l-12.9-33.4h-46.2l-12.1,33.4h-15.5ZM1264.5-1695.8h37.4l-11.5-30.6c-3.5-9.3-6.1-16.9-7.8-22.9-1.4,7.1-3.4,14.1-5.9,21.1l-12.1,32.4Z"/>
      <path class="cls-41" d="M1348.8-1685.9l13.8-1.2c.7,5.5,2.2,10.1,4.6,13.6,2.4,3.5,6.1,6.4,11.1,8.6,5,2.2,10.7,3.3,16.9,3.3s10.5-.8,14.8-2.5c4.3-1.7,7.4-3.9,9.5-6.8,2.1-2.9,3.1-6,3.1-9.5s-1-6.5-3-9.1c-2-2.6-5.3-4.8-9.9-6.5-3-1.2-9.5-2.9-19.7-5.4-10.1-2.4-17.2-4.7-21.3-6.9-5.3-2.8-9.2-6.2-11.8-10.3-2.6-4.1-3.9-8.7-3.9-13.7s1.6-10.8,4.7-15.6c3.2-4.8,7.8-8.5,13.9-11,6.1-2.5,12.8-3.8,20.3-3.8s15.4,1.3,21.7,4c6.3,2.6,11.1,6.5,14.4,11.6,3.4,5.1,5.2,10.9,5.4,17.4l-14,1.1c-.8-7-3.3-12.2-7.6-15.8-4.3-3.6-10.8-5.3-19.2-5.3s-15.3,1.6-19.3,4.9c-4,3.2-6.1,7.1-6.1,11.7s1.4,7.2,4.3,9.8c2.8,2.6,10.2,5.2,22,7.9,11.9,2.7,20,5,24.4,7,6.4,3,11.2,6.7,14.2,11.3,3.1,4.5,4.6,9.8,4.6,15.7s-1.7,11.4-5,16.6c-3.4,5.2-8.2,9.2-14.5,12.1-6.3,2.9-13.4,4.3-21.3,4.3s-18.4-1.5-25.1-4.4c-6.8-2.9-12-7.3-15.9-13.1-3.8-5.8-5.9-12.5-6.1-19.8Z"/>
    </g>
    <g>
      <path class="cls-36" d="M949.2-1650.5l-42.8-110.4h15.8l28.7,80.2c2.3,6.4,4.2,12.5,5.8,18.1,1.7-6,3.7-12,6-18.1l29.8-80.2h14.9l-43.2,110.4h-15Z"/>
      <path class="cls-36" d="M1021.7-1685.9l13.8-1.2c.7,5.5,2.2,10.1,4.6,13.6,2.4,3.5,6.1,6.4,11.1,8.6,5,2.2,10.7,3.3,16.9,3.3s10.5-.8,14.8-2.5c4.3-1.7,7.4-3.9,9.5-6.8,2.1-2.9,3.1-6,3.1-9.5s-1-6.5-3-9.1c-2-2.6-5.3-4.8-9.9-6.5-3-1.2-9.5-2.9-19.7-5.4-10.1-2.4-17.2-4.7-21.3-6.9-5.3-2.8-9.2-6.2-11.8-10.3-2.6-4.1-3.9-8.7-3.9-13.7s1.6-10.8,4.7-15.6c3.2-4.8,7.8-8.5,13.9-11,6.1-2.5,12.8-3.8,20.3-3.8s15.4,1.3,21.7,4c6.3,2.6,11.1,6.5,14.4,11.6,3.4,5.1,5.2,10.9,5.4,17.4l-14,1.1c-.8-7-3.3-12.2-7.6-15.8-4.3-3.6-10.8-5.3-19.2-5.3s-15.3,1.6-19.3,4.9c-4,3.2-6.1,7.1-6.1,11.7s1.4,7.2,4.3,9.8c2.8,2.6,10.2,5.2,22,7.9,11.9,2.7,20,5,24.4,7,6.4,3,11.2,6.7,14.2,11.3,3.1,4.5,4.6,9.8,4.6,15.7s-1.7,11.4-5,16.6c-3.4,5.2-8.2,9.2-14.5,12.1-6.3,2.9-13.4,4.3-21.3,4.3s-18.4-1.5-25.1-4.4c-6.8-2.9-12-7.3-15.9-13.1-3.8-5.8-5.9-12.5-6.1-19.8Z"/>
      <path class="cls-36" d="M1123.6-1650.5l42.4-110.4h15.7l45.2,110.4h-16.6l-12.9-33.4h-46.2l-12.1,33.4h-15.5ZM1155.4-1695.8h37.4l-11.5-30.6c-3.5-9.3-6.1-16.9-7.8-22.9-1.4,7.1-3.4,14.1-5.9,21.1l-12.1,32.4Z"/>
      <path class="cls-36" d="M1232.6-1650.5l42.4-110.4h15.7l45.2,110.4h-16.6l-12.9-33.4h-46.2l-12.1,33.4h-15.5ZM1264.5-1695.8h37.4l-11.5-30.6c-3.5-9.3-6.1-16.9-7.8-22.9-1.4,7.1-3.4,14.1-5.9,21.1l-12.1,32.4Z"/>
      <path class="cls-36" d="M1348.8-1685.9l13.8-1.2c.7,5.5,2.2,10.1,4.6,13.6,2.4,3.5,6.1,6.4,11.1,8.6,5,2.2,10.7,3.3,16.9,3.3s10.5-.8,14.8-2.5c4.3-1.7,7.4-3.9,9.5-6.8,2.1-2.9,3.1-6,3.1-9.5s-1-6.5-3-9.1c-2-2.6-5.3-4.8-9.9-6.5-3-1.2-9.5-2.9-19.7-5.4-10.1-2.4-17.2-4.7-21.3-6.9-5.3-2.8-9.2-6.2-11.8-10.3-2.6-4.1-3.9-8.7-3.9-13.7s1.6-10.8,4.7-15.6c3.2-4.8,7.8-8.5,13.9-11,6.1-2.5,12.8-3.8,20.3-3.8s15.4,1.3,21.7,4c6.3,2.6,11.1,6.5,14.4,11.6,3.4,5.1,5.2,10.9,5.4,17.4l-14,1.1c-.8-7-3.3-12.2-7.6-15.8-4.3-3.6-10.8-5.3-19.2-5.3s-15.3,1.6-19.3,4.9c-4,3.2-6.1,7.1-6.1,11.7s1.4,7.2,4.3,9.8c2.8,2.6,10.2,5.2,22,7.9,11.9,2.7,20,5,24.4,7,6.4,3,11.2,6.7,14.2,11.3,3.1,4.5,4.6,9.8,4.6,15.7s-1.7,11.4-5,16.6c-3.4,5.2-8.2,9.2-14.5,12.1-6.3,2.9-13.4,4.3-21.3,4.3s-18.4-1.5-25.1-4.4c-6.8-2.9-12-7.3-15.9-13.1-3.8-5.8-5.9-12.5-6.1-19.8Z"/>
    </g>
  </g>
  <g>
    <path class="cls-46" d="M942.2-1546.2v-33.5h-12.5v-4.5h30.2v4.5h-12.6v33.5h-5Z"/>
    <path class="cls-45" d="M986.3-1546.2v-38h27.5v4.5h-22.5v11.7h21v4.5h-21v12.9h23.4v4.5h-28.4Z"/>
    <path class="cls-43" d="M1070-1559.6l5,1.3c-1.1,4.1-3,7.3-5.7,9.5-2.7,2.2-6.1,3.3-10.1,3.3s-7.4-.8-10-2.5c-2.6-1.7-4.5-4.1-5.9-7.3-1.3-3.2-2-6.6-2-10.2s.8-7.4,2.3-10.4c1.5-2.9,3.7-5.2,6.5-6.7,2.8-1.5,5.9-2.3,9.2-2.3s7,1,9.6,2.9c2.6,1.9,4.4,4.7,5.4,8.2l-5,1.2c-.9-2.8-2.2-4.8-3.8-6-1.7-1.3-3.8-1.9-6.3-1.9s-5.4.7-7.3,2.1c-2,1.4-3.3,3.3-4.1,5.6-.8,2.4-1.2,4.8-1.2,7.3s.5,6.1,1.4,8.5c.9,2.4,2.4,4.2,4.4,5.4,2,1.2,4.1,1.8,6.5,1.8s5.2-.8,7.2-2.4c2-1.6,3.3-4,4-7.2Z"/>
    <path class="cls-16" d="M1102.6-1546.2v-38h5v15.6h19.8v-15.6h5v38h-5v-17.9h-19.8v17.9h-5Z"/>
    <path class="cls-26" d="M1161.9-1546.2v-38h5.2l20,29.9v-29.9h4.8v38h-5.2l-20-29.9v29.9h-4.8Z"/>
    <path class="cls-5" d="M1220-1564.7c0-6.3,1.7-11.3,5.1-14.8,3.4-3.6,7.8-5.4,13.1-5.4s6.7.8,9.5,2.5c2.8,1.7,5,4,6.4,7,1.5,3,2.2,6.4,2.2,10.2s-.8,7.3-2.3,10.4c-1.6,3-3.8,5.3-6.6,6.9-2.9,1.6-5.9,2.3-9.2,2.3s-6.8-.9-9.6-2.6c-2.8-1.7-5-4.1-6.4-7.1-1.5-3-2.2-6.2-2.2-9.5ZM1225.2-1564.7c0,4.6,1.2,8.2,3.7,10.8,2.5,2.6,5.6,4,9.3,4s6.9-1.3,9.4-4c2.4-2.7,3.7-6.4,3.7-11.3s-.5-5.8-1.6-8.1c-1-2.3-2.6-4.1-4.6-5.4-2-1.3-4.3-1.9-6.8-1.9-3.6,0-6.6,1.2-9.2,3.7-2.6,2.4-3.9,6.5-3.9,12.3Z"/>
    <path class="cls-17" d="M1283.9-1546.2v-38h5v33.5h18.7v4.5h-23.8Z"/>
    <path class="cls-25" d="M1333.3-1564.7c0-6.3,1.7-11.3,5.1-14.8,3.4-3.6,7.8-5.4,13.1-5.4s6.7.8,9.5,2.5c2.8,1.7,5,4,6.4,7,1.5,3,2.2,6.4,2.2,10.2s-.8,7.3-2.3,10.4c-1.6,3-3.8,5.3-6.6,6.9-2.9,1.6-5.9,2.3-9.2,2.3s-6.8-.9-9.6-2.6c-2.8-1.7-5-4.1-6.4-7.1-1.5-3-2.2-6.2-2.2-9.5ZM1338.5-1564.7c0,4.6,1.2,8.2,3.7,10.8,2.5,2.6,5.6,4,9.3,4s6.9-1.3,9.4-4c2.4-2.7,3.7-6.4,3.7-11.3s-.5-5.8-1.6-8.1c-1-2.3-2.6-4.1-4.6-5.4-2-1.3-4.3-1.9-6.8-1.9-3.6,0-6.6,1.2-9.2,3.7-2.6,2.4-3.9,6.5-3.9,12.3Z"/>
    <path class="cls-38" d="M1415.2-1561.1v-4.5h16.1s0,14.1,0,14.1c-2.5,2-5,3.5-7.7,4.4-2.6,1-5.3,1.5-8.1,1.5s-7.1-.8-10.2-2.4c-3.1-1.6-5.4-3.9-6.9-6.9-1.6-3-2.3-6.4-2.3-10.1s.8-7.2,2.3-10.4c1.5-3.2,3.8-5.6,6.7-7.1,2.9-1.6,6.3-2.3,10-2.3s5.2.4,7.5,1.3c2.2.9,4,2.1,5.2,3.7,1.3,1.6,2.2,3.7,2.9,6.2l-4.5,1.2c-.6-1.9-1.3-3.5-2.1-4.6-.8-1.1-2.1-2-3.6-2.7-1.6-.7-3.3-1-5.2-1s-4.3.3-6,1.1c-1.7.7-3,1.6-4.1,2.8-1,1.1-1.8,2.4-2.4,3.8-1,2.4-1.5,4.9-1.5,7.7s.6,6.2,1.8,8.5c1.2,2.3,2.9,4,5.1,5.1,2.2,1.1,4.6,1.7,7.1,1.7s4.3-.4,6.4-1.3c2.1-.8,3.6-1.7,4.7-2.7v-7.1h-11.2Z"/>
    <path class="cls-51" d="M1460.8-1546.2v-38h5v38h-5Z"/>
    <path class="cls-1" d="M1496-1546.2v-38h27.5v4.5h-22.5v11.7h21v4.5h-21v12.9h23.4v4.5h-28.4Z"/>
    <path class="cls-32" d="M1550.8-1558.4l4.7-.4c.2,1.9.7,3.5,1.6,4.7.8,1.2,2.1,2.2,3.8,3,1.7.8,3.7,1.1,5.8,1.1s3.6-.3,5.1-.9c1.5-.6,2.6-1.4,3.3-2.3.7-1,1.1-2.1,1.1-3.3s-.3-2.2-1-3.1c-.7-.9-1.8-1.6-3.4-2.2-1-.4-3.3-1-6.8-1.9-3.5-.8-5.9-1.6-7.3-2.4-1.8-1-3.2-2.1-4.1-3.5-.9-1.4-1.3-3-1.3-4.7s.5-3.7,1.6-5.4c1.1-1.7,2.7-2.9,4.8-3.8,2.1-.9,4.4-1.3,7-1.3s5.3.5,7.5,1.4c2.2.9,3.8,2.2,5,4,1.2,1.8,1.8,3.8,1.9,6l-4.8.4c-.3-2.4-1.1-4.2-2.6-5.4-1.5-1.2-3.7-1.8-6.6-1.8s-5.3.6-6.7,1.7c-1.4,1.1-2.1,2.5-2.1,4s.5,2.5,1.5,3.4c1,.9,3.5,1.8,7.6,2.7,4.1.9,6.9,1.7,8.4,2.4,2.2,1,3.8,2.3,4.9,3.9,1.1,1.6,1.6,3.4,1.6,5.4s-.6,3.9-1.7,5.7c-1.2,1.8-2.8,3.2-5,4.2-2.2,1-4.6,1.5-7.3,1.5s-6.3-.5-8.7-1.5c-2.3-1-4.2-2.5-5.5-4.5-1.3-2-2-4.3-2.1-6.8Z"/>
  </g>
  <g>
    <g>
      <path class="cls-44" d="M722.6-1088c14.3-46.4,17.4-96.3,9.3-144.2-14.2-5-29.5-7.8-45.4-7.8-35.8,0-68.4,13.9-92.6,36.6,19.8,6.7,38.8,17,55.3,28.4,32.3,22.4,57.5,55.1,73.4,86.9Z"/>
      <path class="cls-44" d="M781-1201.6c-6.8,72-28.2,142.6-62.9,206.1-34.7-63-94.5-118.1-162.8-143-2.8,10.9-4.3,22.2-4.3,34,0,74.8,60.7,135.5,135.5,135.5s135.5-60.7,135.5-135.5-15.7-72.5-41-97.1Z"/>
    </g>
    <path class="cls-44" d="M620.8-1207.9s44.9,16.9,68.4,47.6c0,0-5.9-41-27.4-65.1,0,0-18.9,2.6-41,17.6Z"/>
    <path class="cls-44" d="M566.9-1070.1s16.3,62.4,82.3,86c0,0-12.7-76.9-82.3-86Z"/>
  </g>
  <g>
    <g>
      <path class="cls-44" d="M925.2-1089.5l-42.8-110.4h15.8l28.7,80.2c2.3,6.4,4.2,12.5,5.8,18.1,1.7-6,3.7-12,6-18.1l29.8-80.2h14.9l-43.2,110.4h-15Z"/>
      <path class="cls-44" d="M997.7-1124.9l13.8-1.2c.7,5.5,2.2,10.1,4.6,13.6,2.4,3.5,6.1,6.4,11.1,8.6,5,2.2,10.7,3.3,16.9,3.3s10.5-.8,14.8-2.5c4.3-1.7,7.4-3.9,9.5-6.8,2.1-2.9,3.1-6,3.1-9.5s-1-6.5-3-9.1c-2-2.6-5.3-4.8-9.9-6.5-3-1.2-9.5-2.9-19.7-5.4-10.1-2.4-17.2-4.7-21.3-6.9-5.3-2.8-9.2-6.2-11.8-10.3-2.6-4.1-3.9-8.7-3.9-13.7s1.6-10.8,4.7-15.6c3.2-4.8,7.8-8.5,13.9-11,6.1-2.5,12.8-3.8,20.3-3.8s15.4,1.3,21.7,4,11.1,6.5,14.4,11.6c3.4,5.1,5.2,10.9,5.4,17.4l-14,1.1c-.8-7-3.3-12.2-7.6-15.8-4.3-3.6-10.8-5.3-19.2-5.3s-15.3,1.6-19.3,4.9c-4,3.2-6.1,7.1-6.1,11.7s1.4,7.2,4.3,9.8c2.8,2.6,10.2,5.2,22,7.9,11.9,2.7,20,5,24.4,7,6.4,3,11.2,6.7,14.2,11.3,3.1,4.5,4.6,9.8,4.6,15.7s-1.7,11.4-5,16.6c-3.4,5.2-8.2,9.2-14.5,12.1-6.3,2.9-13.4,4.3-21.3,4.3s-18.4-1.5-25.1-4.4c-6.8-2.9-12-7.3-15.9-13.1-3.8-5.8-5.9-12.5-6.1-19.8Z"/>
      <path class="cls-44" d="M1099.6-1089.5l42.4-110.4h15.7l45.2,110.4h-16.6l-12.9-33.4h-46.2l-12.1,33.4h-15.5ZM1131.4-1134.8h37.4l-11.5-30.6c-3.5-9.3-6.1-16.9-7.8-22.9-1.4,7.1-3.4,14.1-5.9,21.1l-12.1,32.4Z"/>
      <path class="cls-44" d="M1208.6-1089.5l42.4-110.4h15.7l45.2,110.4h-16.6l-12.9-33.4h-46.2l-12.1,33.4h-15.5ZM1240.5-1134.8h37.4l-11.5-30.6c-3.5-9.3-6.1-16.9-7.8-22.9-1.4,7.1-3.4,14.1-5.9,21.1l-12.1,32.4Z"/>
      <path class="cls-44" d="M1324.8-1124.9l13.8-1.2c.7,5.5,2.2,10.1,4.6,13.6,2.4,3.5,6.1,6.4,11.1,8.6,5,2.2,10.7,3.3,16.9,3.3s10.5-.8,14.8-2.5c4.3-1.7,7.4-3.9,9.5-6.8,2.1-2.9,3.1-6,3.1-9.5s-1-6.5-3-9.1c-2-2.6-5.3-4.8-9.9-6.5-3-1.2-9.5-2.9-19.7-5.4-10.1-2.4-17.2-4.7-21.3-6.9-5.3-2.8-9.2-6.2-11.8-10.3-2.6-4.1-3.9-8.7-3.9-13.7s1.6-10.8,4.7-15.6c3.2-4.8,7.8-8.5,13.9-11,6.1-2.5,12.8-3.8,20.3-3.8s15.4,1.3,21.7,4c6.3,2.6,11.1,6.5,14.4,11.6,3.4,5.1,5.2,10.9,5.4,17.4l-14,1.1c-.8-7-3.3-12.2-7.6-15.8-4.3-3.6-10.8-5.3-19.2-5.3s-15.3,1.6-19.3,4.9c-4,3.2-6.1,7.1-6.1,11.7s1.4,7.2,4.3,9.8c2.8,2.6,10.2,5.2,22,7.9,11.9,2.7,20,5,24.4,7,6.4,3,11.2,6.7,14.2,11.3,3.1,4.5,4.6,9.8,4.6,15.7s-1.7,11.4-5,16.6c-3.4,5.2-8.2,9.2-14.5,12.1-6.3,2.9-13.4,4.3-21.3,4.3s-18.4-1.5-25.1-4.4c-6.8-2.9-12-7.3-15.9-13.1-3.8-5.8-5.9-12.5-6.1-19.8Z"/>
    </g>
    <g>
      <path class="cls-44" d="M925.2-1089.5l-42.8-110.4h15.8l28.7,80.2c2.3,6.4,4.2,12.5,5.8,18.1,1.7-6,3.7-12,6-18.1l29.8-80.2h14.9l-43.2,110.4h-15Z"/>
      <path class="cls-44" d="M997.7-1124.9l13.8-1.2c.7,5.5,2.2,10.1,4.6,13.6,2.4,3.5,6.1,6.4,11.1,8.6,5,2.2,10.7,3.3,16.9,3.3s10.5-.8,14.8-2.5c4.3-1.7,7.4-3.9,9.5-6.8,2.1-2.9,3.1-6,3.1-9.5s-1-6.5-3-9.1c-2-2.6-5.3-4.8-9.9-6.5-3-1.2-9.5-2.9-19.7-5.4-10.1-2.4-17.2-4.7-21.3-6.9-5.3-2.8-9.2-6.2-11.8-10.3-2.6-4.1-3.9-8.7-3.9-13.7s1.6-10.8,4.7-15.6c3.2-4.8,7.8-8.5,13.9-11,6.1-2.5,12.8-3.8,20.3-3.8s15.4,1.3,21.7,4,11.1,6.5,14.4,11.6c3.4,5.1,5.2,10.9,5.4,17.4l-14,1.1c-.8-7-3.3-12.2-7.6-15.8-4.3-3.6-10.8-5.3-19.2-5.3s-15.3,1.6-19.3,4.9c-4,3.2-6.1,7.1-6.1,11.7s1.4,7.2,4.3,9.8c2.8,2.6,10.2,5.2,22,7.9,11.9,2.7,20,5,24.4,7,6.4,3,11.2,6.7,14.2,11.3,3.1,4.5,4.6,9.8,4.6,15.7s-1.7,11.4-5,16.6c-3.4,5.2-8.2,9.2-14.5,12.1-6.3,2.9-13.4,4.3-21.3,4.3s-18.4-1.5-25.1-4.4c-6.8-2.9-12-7.3-15.9-13.1-3.8-5.8-5.9-12.5-6.1-19.8Z"/>
      <path class="cls-44" d="M1099.6-1089.5l42.4-110.4h15.7l45.2,110.4h-16.6l-12.9-33.4h-46.2l-12.1,33.4h-15.5ZM1131.4-1134.8h37.4l-11.5-30.6c-3.5-9.3-6.1-16.9-7.8-22.9-1.4,7.1-3.4,14.1-5.9,21.1l-12.1,32.4Z"/>
      <path class="cls-44" d="M1208.6-1089.5l42.4-110.4h15.7l45.2,110.4h-16.6l-12.9-33.4h-46.2l-12.1,33.4h-15.5ZM1240.5-1134.8h37.4l-11.5-30.6c-3.5-9.3-6.1-16.9-7.8-22.9-1.4,7.1-3.4,14.1-5.9,21.1l-12.1,32.4Z"/>
      <path class="cls-44" d="M1324.8-1124.9l13.8-1.2c.7,5.5,2.2,10.1,4.6,13.6,2.4,3.5,6.1,6.4,11.1,8.6,5,2.2,10.7,3.3,16.9,3.3s10.5-.8,14.8-2.5c4.3-1.7,7.4-3.9,9.5-6.8,2.1-2.9,3.1-6,3.1-9.5s-1-6.5-3-9.1c-2-2.6-5.3-4.8-9.9-6.5-3-1.2-9.5-2.9-19.7-5.4-10.1-2.4-17.2-4.7-21.3-6.9-5.3-2.8-9.2-6.2-11.8-10.3-2.6-4.1-3.9-8.7-3.9-13.7s1.6-10.8,4.7-15.6c3.2-4.8,7.8-8.5,13.9-11,6.1-2.5,12.8-3.8,20.3-3.8s15.4,1.3,21.7,4c6.3,2.6,11.1,6.5,14.4,11.6,3.4,5.1,5.2,10.9,5.4,17.4l-14,1.1c-.8-7-3.3-12.2-7.6-15.8-4.3-3.6-10.8-5.3-19.2-5.3s-15.3,1.6-19.3,4.9c-4,3.2-6.1,7.1-6.1,11.7s1.4,7.2,4.3,9.8c2.8,2.6,10.2,5.2,22,7.9,11.9,2.7,20,5,24.4,7,6.4,3,11.2,6.7,14.2,11.3,3.1,4.5,4.6,9.8,4.6,15.7s-1.7,11.4-5,16.6c-3.4,5.2-8.2,9.2-14.5,12.1-6.3,2.9-13.4,4.3-21.3,4.3s-18.4-1.5-25.1-4.4c-6.8-2.9-12-7.3-15.9-13.1-3.8-5.8-5.9-12.5-6.1-19.8Z"/>
    </g>
  </g>
  <g>
    <path class="cls-44" d="M918.2-985.2v-33.5h-12.5v-4.5h30.2v4.5h-12.6v33.5h-5Z"/>
    <path class="cls-44" d="M962.3-985.2v-38h27.5v4.5h-22.5v11.7h21v4.5h-21v12.9h23.4v4.5h-28.4Z"/>
    <path class="cls-44" d="M1046-998.6l5,1.3c-1.1,4.1-3,7.3-5.7,9.5-2.7,2.2-6.1,3.3-10.1,3.3s-7.4-.8-10-2.5c-2.6-1.7-4.5-4.1-5.9-7.3-1.3-3.2-2-6.6-2-10.2s.8-7.4,2.3-10.4c1.5-2.9,3.7-5.2,6.5-6.7,2.8-1.5,5.9-2.3,9.2-2.3s7,1,9.6,2.9c2.6,1.9,4.4,4.7,5.4,8.2l-5,1.2c-.9-2.8-2.2-4.8-3.8-6-1.7-1.3-3.8-1.9-6.3-1.9s-5.4.7-7.3,2.1c-2,1.4-3.3,3.3-4.1,5.6-.8,2.4-1.2,4.8-1.2,7.3s.5,6.1,1.4,8.5c.9,2.4,2.4,4.2,4.4,5.4,2,1.2,4.1,1.8,6.5,1.8s5.2-.8,7.2-2.4c2-1.6,3.3-4,4-7.2Z"/>
    <path class="cls-44" d="M1078.6-985.2v-38h5v15.6h19.8v-15.6h5v38h-5v-17.9h-19.8v17.9h-5Z"/>
    <path class="cls-44" d="M1137.9-985.2v-38h5.2l20,29.9v-29.9h4.8v38h-5.2l-20-29.9v29.9h-4.8Z"/>
    <path class="cls-44" d="M1196-1003.7c0-6.3,1.7-11.3,5.1-14.8,3.4-3.6,7.8-5.4,13.1-5.4s6.7.8,9.5,2.5c2.8,1.7,5,4,6.4,7,1.5,3,2.2,6.4,2.2,10.2s-.8,7.3-2.3,10.4c-1.6,3-3.8,5.3-6.6,6.9-2.9,1.6-5.9,2.3-9.2,2.3s-6.8-.9-9.6-2.6c-2.8-1.7-5-4.1-6.4-7.1-1.5-3-2.2-6.2-2.2-9.5ZM1201.2-1003.7c0,4.6,1.2,8.2,3.7,10.8,2.5,2.6,5.6,4,9.3,4s6.9-1.3,9.4-4c2.4-2.7,3.7-6.4,3.7-11.3s-.5-5.8-1.6-8.1c-1-2.3-2.6-4.1-4.6-5.4-2-1.3-4.3-1.9-6.8-1.9-3.6,0-6.6,1.2-9.2,3.7-2.6,2.4-3.9,6.5-3.9,12.3Z"/>
    <path class="cls-44" d="M1259.9-985.2v-38h5v33.5h18.7v4.5h-23.8Z"/>
    <path class="cls-44" d="M1309.3-1003.7c0-6.3,1.7-11.3,5.1-14.8,3.4-3.6,7.8-5.4,13.1-5.4s6.7.8,9.5,2.5c2.8,1.7,5,4,6.4,7,1.5,3,2.2,6.4,2.2,10.2s-.8,7.3-2.3,10.4c-1.6,3-3.8,5.3-6.6,6.9-2.9,1.6-5.9,2.3-9.2,2.3s-6.8-.9-9.6-2.6c-2.8-1.7-5-4.1-6.4-7.1-1.5-3-2.2-6.2-2.2-9.5ZM1314.5-1003.7c0,4.6,1.2,8.2,3.7,10.8,2.5,2.6,5.6,4,9.3,4s6.9-1.3,9.4-4c2.4-2.7,3.7-6.4,3.7-11.3s-.5-5.8-1.6-8.1c-1-2.3-2.6-4.1-4.6-5.4-2-1.3-4.3-1.9-6.8-1.9-3.6,0-6.6,1.2-9.2,3.7-2.6,2.4-3.9,6.5-3.9,12.3Z"/>
    <path class="cls-44" d="M1391.2-1000.1v-4.5h16.1s0,14.1,0,14.1c-2.5,2-5,3.5-7.7,4.4-2.6,1-5.3,1.5-8.1,1.5s-7.1-.8-10.2-2.4c-3.1-1.6-5.4-3.9-6.9-6.9-1.6-3-2.3-6.4-2.3-10.1s.8-7.2,2.3-10.4c1.5-3.2,3.8-5.6,6.7-7.1,2.9-1.6,6.3-2.3,10-2.3s5.2.4,7.5,1.3c2.2.9,4,2.1,5.2,3.7,1.3,1.6,2.2,3.7,2.9,6.2l-4.5,1.2c-.6-1.9-1.3-3.5-2.1-4.6-.8-1.1-2.1-2-3.6-2.7-1.6-.7-3.3-1-5.2-1s-4.3.3-6,1.1c-1.7.7-3,1.6-4.1,2.8-1,1.1-1.8,2.4-2.4,3.8-1,2.4-1.5,4.9-1.5,7.7s.6,6.2,1.8,8.5c1.2,2.3,2.9,4,5.1,5.1,2.2,1.1,4.6,1.7,7.1,1.7s4.3-.4,6.4-1.3c2.1-.8,3.6-1.7,4.7-2.7v-7.1h-11.2Z"/>
    <path class="cls-44" d="M1436.8-985.2v-38h5v38h-5Z"/>
    <path class="cls-44" d="M1472-985.2v-38h27.5v4.5h-22.5v11.7h21v4.5h-21v12.9h23.4v4.5h-28.4Z"/>
    <path class="cls-44" d="M1526.8-997.4l4.7-.4c.2,1.9.7,3.5,1.6,4.7s2.1,2.2,3.8,3c1.7.8,3.7,1.1,5.8,1.1s3.6-.3,5.1-.9c1.5-.6,2.6-1.4,3.3-2.3.7-1,1.1-2.1,1.1-3.3s-.3-2.2-1-3.1c-.7-.9-1.8-1.6-3.4-2.2-1-.4-3.3-1-6.8-1.9-3.5-.8-5.9-1.6-7.3-2.4-1.8-1-3.2-2.1-4.1-3.5-.9-1.4-1.3-3-1.3-4.7s.5-3.7,1.6-5.4c1.1-1.7,2.7-2.9,4.8-3.8,2.1-.9,4.4-1.3,7-1.3s5.3.5,7.5,1.4c2.2.9,3.8,2.2,5,4,1.2,1.8,1.8,3.8,1.9,6l-4.8.4c-.3-2.4-1.1-4.2-2.6-5.4-1.5-1.2-3.7-1.8-6.6-1.8s-5.3.6-6.7,1.7c-1.4,1.1-2.1,2.5-2.1,4s.5,2.5,1.5,3.4c1,.9,3.5,1.8,7.6,2.7,4.1.9,6.9,1.7,8.4,2.4,2.2,1,3.8,2.3,4.9,3.9,1.1,1.6,1.6,3.4,1.6,5.4s-.6,3.9-1.7,5.7c-1.2,1.8-2.8,3.2-5,4.2-2.2,1-4.6,1.5-7.3,1.5s-6.3-.5-8.7-1.5c-2.3-1-4.2-2.5-5.5-4.5-1.3-2-2-4.3-2.1-6.8Z"/>
  </g>
  <g>
    <g>
      <path class="cls-8" d="M754.6-526c14.3-46.4,17.4-96.3,9.3-144.2-14.2-5-29.5-7.8-45.4-7.8-35.8,0-68.4,13.9-92.6,36.6,19.8,6.7,38.8,17,55.3,28.4,32.3,22.4,57.5,55.1,73.4,86.9Z"/>
      <path class="cls-8" d="M813-639.6c-6.8,72-28.2,142.6-62.9,206.1-34.7-63-94.5-118.1-162.8-143-2.8,10.9-4.3,22.2-4.3,34,0,74.8,60.7,135.5,135.5,135.5s135.5-60.7,135.5-135.5-15.7-72.5-41-97.1Z"/>
    </g>
    <path class="cls-8" d="M652.8-645.9s44.9,16.9,68.4,47.6c0,0-5.9-41-27.4-65.1,0,0-18.9,2.6-41,17.6Z"/>
    <path class="cls-8" d="M598.9-508.1s16.3,62.4,82.3,86c0,0-12.7-76.9-82.3-86Z"/>
  </g>
  <path class="cls-8" d="M957.2-527.5l-42.8-110.4h15.8l28.7,80.2c2.3,6.4,4.2,12.5,5.8,18.1,1.7-6,3.7-12,6-18.1l29.8-80.2h14.9l-43.2,110.4h-15Z"/>
  <path class="cls-8" d="M1029.7-562.9l13.8-1.2c.7,5.5,2.2,10.1,4.6,13.6,2.4,3.5,6.1,6.4,11.1,8.6,5,2.2,10.7,3.3,16.9,3.3s10.5-.8,14.8-2.5c4.3-1.7,7.4-3.9,9.5-6.8,2.1-2.9,3.1-6,3.1-9.5s-1-6.5-3-9.1c-2-2.6-5.3-4.8-9.9-6.5-3-1.2-9.5-2.9-19.7-5.4-10.1-2.4-17.2-4.7-21.3-6.9-5.3-2.8-9.2-6.2-11.8-10.3-2.6-4.1-3.9-8.7-3.9-13.7s1.6-10.8,4.7-15.6c3.2-4.8,7.8-8.5,13.9-11,6.1-2.5,12.8-3.8,20.3-3.8s15.4,1.3,21.7,4,11.1,6.5,14.4,11.6c3.4,5.1,5.2,10.9,5.4,17.4l-14,1.1c-.8-7-3.3-12.2-7.6-15.8-4.3-3.6-10.8-5.3-19.2-5.3s-15.3,1.6-19.3,4.9c-4,3.2-6.1,7.1-6.1,11.7s1.4,7.2,4.3,9.8c2.8,2.6,10.2,5.2,22,7.9,11.9,2.7,20,5,24.4,7,6.4,3,11.2,6.7,14.2,11.3,3.1,4.5,4.6,9.8,4.6,15.7s-1.7,11.4-5,16.6c-3.4,5.2-8.2,9.2-14.5,12.1-6.3,2.9-13.4,4.3-21.3,4.3s-18.4-1.5-25.1-4.4c-6.8-2.9-12-7.3-15.9-13.1-3.8-5.8-5.9-12.5-6.1-19.8Z"/>
  <path class="cls-8" d="M1131.6-527.5l42.4-110.4h15.7l45.2,110.4h-16.6l-12.9-33.4h-46.2l-12.1,33.4h-15.5ZM1163.4-572.8h37.4l-11.5-30.6c-3.5-9.3-6.1-16.9-7.8-22.9-1.4,7.1-3.4,14.1-5.9,21.1l-12.1,32.4Z"/>
  <path class="cls-8" d="M1240.6-527.5l42.4-110.4h15.7l45.2,110.4h-16.6l-12.9-33.4h-46.2l-12.1,33.4h-15.5ZM1272.5-572.8h37.4l-11.5-30.6c-3.5-9.3-6.1-16.9-7.8-22.9-1.4,7.1-3.4,14.1-5.9,21.1l-12.1,32.4Z"/>
  <path class="cls-8" d="M1356.8-562.9l13.8-1.2c.7,5.5,2.2,10.1,4.6,13.6,2.4,3.5,6.1,6.4,11.1,8.6,5,2.2,10.7,3.3,16.9,3.3s10.5-.8,14.8-2.5c4.3-1.7,7.4-3.9,9.5-6.8,2.1-2.9,3.1-6,3.1-9.5s-1-6.5-3-9.1c-2-2.6-5.3-4.8-9.9-6.5-3-1.2-9.5-2.9-19.7-5.4-10.1-2.4-17.2-4.7-21.3-6.9-5.3-2.8-9.2-6.2-11.8-10.3-2.6-4.1-3.9-8.7-3.9-13.7s1.6-10.8,4.7-15.6c3.2-4.8,7.8-8.5,13.9-11,6.1-2.5,12.8-3.8,20.3-3.8s15.4,1.3,21.7,4c6.3,2.6,11.1,6.5,14.4,11.6,3.4,5.1,5.2,10.9,5.4,17.4l-14,1.1c-.8-7-3.3-12.2-7.6-15.8-4.3-3.6-10.8-5.3-19.2-5.3s-15.3,1.6-19.3,4.9c-4,3.2-6.1,7.1-6.1,11.7s1.4,7.2,4.3,9.8c2.8,2.6,10.2,5.2,22,7.9,11.9,2.7,20,5,24.4,7,6.4,3,11.2,6.7,14.2,11.3,3.1,4.5,4.6,9.8,4.6,15.7s-1.7,11.4-5,16.6c-3.4,5.2-8.2,9.2-14.5,12.1-6.3,2.9-13.4,4.3-21.3,4.3s-18.4-1.5-25.1-4.4c-6.8-2.9-12-7.3-15.9-13.1-3.8-5.8-5.9-12.5-6.1-19.8Z"/>
  <g>
    <path class="cls-8" d="M950.2-423.2v-33.5h-12.5v-4.5h30.2v4.5h-12.6v33.5h-5Z"/>
    <path class="cls-8" d="M994.3-423.2v-38h27.5v4.5h-22.5v11.7h21v4.5h-21v12.9h23.4v4.5h-28.4Z"/>
    <path class="cls-8" d="M1078-436.6l5,1.3c-1.1,4.1-3,7.3-5.7,9.5-2.7,2.2-6.1,3.3-10.1,3.3s-7.4-.8-10-2.5c-2.6-1.7-4.5-4.1-5.9-7.3-1.3-3.2-2-6.6-2-10.2s.8-7.4,2.3-10.4c1.5-2.9,3.7-5.2,6.5-6.7,2.8-1.5,5.9-2.3,9.2-2.3s7,1,9.6,2.9c2.6,1.9,4.4,4.7,5.4,8.2l-5,1.2c-.9-2.8-2.2-4.8-3.8-6-1.7-1.3-3.8-1.9-6.3-1.9s-5.4.7-7.3,2.1c-2,1.4-3.3,3.3-4.1,5.6-.8,2.4-1.2,4.8-1.2,7.3s.5,6.1,1.4,8.5c.9,2.4,2.4,4.2,4.4,5.4,2,1.2,4.1,1.8,6.5,1.8s5.2-.8,7.2-2.4c2-1.6,3.3-4,4-7.2Z"/>
    <path class="cls-8" d="M1110.6-423.2v-38h5v15.6h19.8v-15.6h5v38h-5v-17.9h-19.8v17.9h-5Z"/>
    <path class="cls-8" d="M1169.9-423.2v-38h5.2l20,29.9v-29.9h4.8v38h-5.2l-20-29.9v29.9h-4.8Z"/>
    <path class="cls-8" d="M1228-441.7c0-6.3,1.7-11.3,5.1-14.8,3.4-3.6,7.8-5.4,13.1-5.4s6.7.8,9.5,2.5c2.8,1.7,5,4,6.4,7,1.5,3,2.2,6.4,2.2,10.2s-.8,7.3-2.3,10.4c-1.6,3-3.8,5.3-6.6,6.9-2.9,1.6-5.9,2.3-9.2,2.3s-6.8-.9-9.6-2.6c-2.8-1.7-5-4.1-6.4-7.1-1.5-3-2.2-6.2-2.2-9.5ZM1233.2-441.7c0,4.6,1.2,8.2,3.7,10.8,2.5,2.6,5.6,4,9.3,4s6.9-1.3,9.4-4c2.4-2.7,3.7-6.4,3.7-11.3s-.5-5.8-1.6-8.1c-1-2.3-2.6-4.1-4.6-5.4-2-1.3-4.3-1.9-6.8-1.9-3.6,0-6.6,1.2-9.2,3.7-2.6,2.4-3.9,6.5-3.9,12.3Z"/>
    <path class="cls-8" d="M1291.9-423.2v-38h5v33.5h18.7v4.5h-23.8Z"/>
    <path class="cls-8" d="M1341.3-441.7c0-6.3,1.7-11.3,5.1-14.8,3.4-3.6,7.8-5.4,13.1-5.4s6.7.8,9.5,2.5c2.8,1.7,5,4,6.4,7,1.5,3,2.2,6.4,2.2,10.2s-.8,7.3-2.3,10.4c-1.6,3-3.8,5.3-6.6,6.9-2.9,1.6-5.9,2.3-9.2,2.3s-6.8-.9-9.6-2.6c-2.8-1.7-5-4.1-6.4-7.1-1.5-3-2.2-6.2-2.2-9.5ZM1346.5-441.7c0,4.6,1.2,8.2,3.7,10.8,2.5,2.6,5.6,4,9.3,4s6.9-1.3,9.4-4c2.4-2.7,3.7-6.4,3.7-11.3s-.5-5.8-1.6-8.1c-1-2.3-2.6-4.1-4.6-5.4-2-1.3-4.3-1.9-6.8-1.9-3.6,0-6.6,1.2-9.2,3.7-2.6,2.4-3.9,6.5-3.9,12.3Z"/>
    <path class="cls-8" d="M1423.2-438.1v-4.5h16.1s0,14.1,0,14.1c-2.5,2-5,3.5-7.7,4.4-2.6,1-5.3,1.5-8.1,1.5s-7.1-.8-10.2-2.4c-3.1-1.6-5.4-3.9-6.9-6.9-1.6-3-2.3-6.4-2.3-10.1s.8-7.2,2.3-10.4c1.5-3.2,3.8-5.6,6.7-7.1,2.9-1.6,6.3-2.3,10-2.3s5.2.4,7.5,1.3c2.2.9,4,2.1,5.2,3.7,1.3,1.6,2.2,3.7,2.9,6.2l-4.5,1.2c-.6-1.9-1.3-3.5-2.1-4.6-.8-1.1-2.1-2-3.6-2.7-1.6-.7-3.3-1-5.2-1s-4.3.3-6,1.1c-1.7.7-3,1.6-4.1,2.8-1,1.1-1.8,2.4-2.4,3.8-1,2.4-1.5,4.9-1.5,7.7s.6,6.2,1.8,8.5c1.2,2.3,2.9,4,5.1,5.1,2.2,1.1,4.6,1.7,7.1,1.7s4.3-.4,6.4-1.3c2.1-.8,3.6-1.7,4.7-2.7v-7.1h-11.2Z"/>
    <path class="cls-8" d="M1468.8-423.2v-38h5v38h-5Z"/>
    <path class="cls-8" d="M1504-423.2v-38h27.5v4.5h-22.5v11.7h21v4.5h-21v12.9h23.4v4.5h-28.4Z"/>
    <path class="cls-8" d="M1558.8-435.4l4.7-.4c.2,1.9.7,3.5,1.6,4.7s2.1,2.2,3.8,3c1.7.8,3.7,1.1,5.8,1.1s3.6-.3,5.1-.9c1.5-.6,2.6-1.4,3.3-2.3.7-1,1.1-2.1,1.1-3.3s-.3-2.2-1-3.1c-.7-.9-1.8-1.6-3.4-2.2-1-.4-3.3-1-6.8-1.9-3.5-.8-5.9-1.6-7.3-2.4-1.8-1-3.2-2.1-4.1-3.5-.9-1.4-1.3-3-1.3-4.7s.5-3.7,1.6-5.4c1.1-1.7,2.7-2.9,4.8-3.8,2.1-.9,4.4-1.3,7-1.3s5.3.5,7.5,1.4c2.2.9,3.8,2.2,5,4,1.2,1.8,1.8,3.8,1.9,6l-4.8.4c-.3-2.4-1.1-4.2-2.6-5.4-1.5-1.2-3.7-1.8-6.6-1.8s-5.3.6-6.7,1.7c-1.4,1.1-2.1,2.5-2.1,4s.5,2.5,1.5,3.4c1,.9,3.5,1.8,7.6,2.7,4.1.9,6.9,1.7,8.4,2.4,2.2,1,3.8,2.3,4.9,3.9,1.1,1.6,1.6,3.4,1.6,5.4s-.6,3.9-1.7,5.7c-1.2,1.8-2.8,3.2-5,4.2-2.2,1-4.6,1.5-7.3,1.5s-6.3-.5-8.7-1.5c-2.3-1-4.2-2.5-5.5-4.5-1.3-2-2-4.3-2.1-6.8Z"/>
  </g>
</svg>