<?xml version="1.0" encoding="UTF-8"?>
<svg id="Layer_1" data-name="Layer 1" xmlns="http://www.w3.org/2000/svg" version="1.1" viewBox="0 0 1455 442">
  <defs>
    <style>
      .cls-1 {
        fill: #CurrentColor;
      }

      .cls-1, .cls-2 {
        stroke-width: 0px;
      }

      .cls-2 {
        fill: #fff;
      }
    </style>
  </defs>
  <!-- <rect class="cls-1" width="1455" height="442"/> -->
  <g>
    <g>
      <path class="cls-2" d="M395.5,226.9c14.3-46.4,17.4-96.3,9.3-144.2-14.2-5-29.5-7.8-45.4-7.8-35.8,0-68.4,13.9-92.6,36.6,19.8,6.7,38.8,17,55.3,28.4,32.3,22.4,57.5,55.1,73.4,86.9Z"/>
      <path class="cls-2" d="M454,113.4c-6.8,72-28.2,142.6-62.9,206.1-34.7-63-94.5-118.1-162.8-143-2.8,10.9-4.3,22.2-4.3,34,0,74.8,60.7,135.5,135.5,135.5s135.5-60.7,135.5-135.5-15.7-72.5-41-97.1Z"/>
    </g>
    <path class="cls-2" d="M293.8,107s44.9,16.9,68.4,47.6c0,0-5.9-41-27.4-65.1,0,0-18.9,2.6-41,17.6Z"/>
    <path class="cls-2" d="M239.8,244.8s16.3,62.4,82.3,86c0,0-12.7-76.9-82.3-86Z"/>
  </g>
  <g>
    <g>
      <path class="cls-2" d="M598.2,225.5l-42.8-110.4h15.8l28.7,80.2c2.3,6.4,4.2,12.5,5.8,18.1,1.7-6,3.7-12,6-18.1l29.8-80.2h14.9l-43.2,110.4h-15Z"/>
      <path class="cls-2" d="M670.7,190l13.8-1.2c.7,5.5,2.2,10.1,4.6,13.6,2.4,3.5,6.1,6.4,11.1,8.6,5,2.2,10.7,3.3,16.9,3.3s10.5-.8,14.8-2.5c4.3-1.7,7.4-3.9,9.5-6.8,2.1-2.9,3.1-6,3.1-9.5s-1-6.5-3-9.1c-2-2.6-5.3-4.8-9.9-6.5-3-1.2-9.5-2.9-19.7-5.4-10.1-2.4-17.2-4.7-21.3-6.9-5.3-2.8-9.2-6.2-11.8-10.3-2.6-4.1-3.9-8.7-3.9-13.7s1.6-10.8,4.7-15.6c3.2-4.8,7.8-8.5,13.9-11,6.1-2.5,12.8-3.8,20.3-3.8s15.4,1.3,21.7,4c6.3,2.6,11.1,6.5,14.4,11.6,3.4,5.1,5.2,10.9,5.4,17.4l-14,1.1c-.8-7-3.3-12.2-7.6-15.8-4.3-3.6-10.8-5.3-19.2-5.3s-15.3,1.6-19.3,4.9c-4,3.2-6.1,7.1-6.1,11.7s1.4,7.2,4.3,9.8c2.8,2.6,10.2,5.2,22,7.9,11.9,2.7,20,5,24.4,7,6.4,3,11.2,6.7,14.2,11.3,3.1,4.5,4.6,9.8,4.6,15.7s-1.7,11.4-5,16.6c-3.4,5.2-8.2,9.2-14.5,12.1-6.3,2.9-13.4,4.3-21.3,4.3s-18.4-1.5-25.1-4.4c-6.8-2.9-12-7.3-15.9-13.1-3.8-5.8-5.9-12.5-6.1-19.8Z"/>
      <path class="cls-2" d="M772.6,225.5l42.4-110.4h15.7l45.2,110.4h-16.6l-12.9-33.4h-46.2l-12.1,33.4h-15.5ZM804.4,180.2h37.4l-11.5-30.6c-3.5-9.3-6.1-16.9-7.8-22.9-1.4,7.1-3.4,14.1-5.9,21.1l-12.1,32.4Z"/>
      <path class="cls-2" d="M881.6,225.5l42.4-110.4h15.7l45.2,110.4h-16.6l-12.9-33.4h-46.2l-12.1,33.4h-15.5ZM913.5,180.2h37.4l-11.5-30.6c-3.5-9.3-6.1-16.9-7.8-22.9-1.4,7.1-3.4,14.1-5.9,21.1l-12.1,32.4Z"/>
      <path class="cls-2" d="M997.8,190l13.8-1.2c.7,5.5,2.2,10.1,4.6,13.6,2.4,3.5,6.1,6.4,11.1,8.6,5,2.2,10.7,3.3,16.9,3.3s10.5-.8,14.8-2.5c4.3-1.7,7.4-3.9,9.5-6.8,2.1-2.9,3.1-6,3.1-9.5s-1-6.5-3-9.1c-2-2.6-5.3-4.8-9.9-6.5-3-1.2-9.5-2.9-19.7-5.4-10.1-2.4-17.2-4.7-21.3-6.9-5.3-2.8-9.2-6.2-11.8-10.3-2.6-4.1-3.9-8.7-3.9-13.7s1.6-10.8,4.7-15.6c3.2-4.8,7.8-8.5,13.9-11,6.1-2.5,12.8-3.8,20.3-3.8s15.4,1.3,21.7,4c6.3,2.6,11.1,6.5,14.4,11.6,3.4,5.1,5.2,10.9,5.4,17.4l-14,1.1c-.8-7-3.3-12.2-7.6-15.8-4.3-3.6-10.8-5.3-19.2-5.3s-15.3,1.6-19.3,4.9c-4,3.2-6.1,7.1-6.1,11.7s1.4,7.2,4.3,9.8c2.8,2.6,10.2,5.2,22,7.9,11.9,2.7,20,5,24.4,7,6.4,3,11.2,6.7,14.2,11.3,3.1,4.5,4.6,9.8,4.6,15.7s-1.7,11.4-5,16.6c-3.4,5.2-8.2,9.2-14.5,12.1-6.3,2.9-13.4,4.3-21.3,4.3s-18.4-1.5-25.1-4.4c-6.8-2.9-12-7.3-15.9-13.1-3.8-5.8-5.9-12.5-6.1-19.8Z"/>
    </g>
    <g>
      <path class="cls-2" d="M598.2,225.5l-42.8-110.4h15.8l28.7,80.2c2.3,6.4,4.2,12.5,5.8,18.1,1.7-6,3.7-12,6-18.1l29.8-80.2h14.9l-43.2,110.4h-15Z"/>
      <path class="cls-2" d="M670.7,190l13.8-1.2c.7,5.5,2.2,10.1,4.6,13.6,2.4,3.5,6.1,6.4,11.1,8.6,5,2.2,10.7,3.3,16.9,3.3s10.5-.8,14.8-2.5c4.3-1.7,7.4-3.9,9.5-6.8,2.1-2.9,3.1-6,3.1-9.5s-1-6.5-3-9.1c-2-2.6-5.3-4.8-9.9-6.5-3-1.2-9.5-2.9-19.7-5.4-10.1-2.4-17.2-4.7-21.3-6.9-5.3-2.8-9.2-6.2-11.8-10.3-2.6-4.1-3.9-8.7-3.9-13.7s1.6-10.8,4.7-15.6c3.2-4.8,7.8-8.5,13.9-11,6.1-2.5,12.8-3.8,20.3-3.8s15.4,1.3,21.7,4c6.3,2.6,11.1,6.5,14.4,11.6,3.4,5.1,5.2,10.9,5.4,17.4l-14,1.1c-.8-7-3.3-12.2-7.6-15.8-4.3-3.6-10.8-5.3-19.2-5.3s-15.3,1.6-19.3,4.9c-4,3.2-6.1,7.1-6.1,11.7s1.4,7.2,4.3,9.8c2.8,2.6,10.2,5.2,22,7.9,11.9,2.7,20,5,24.4,7,6.4,3,11.2,6.7,14.2,11.3,3.1,4.5,4.6,9.8,4.6,15.7s-1.7,11.4-5,16.6c-3.4,5.2-8.2,9.2-14.5,12.1-6.3,2.9-13.4,4.3-21.3,4.3s-18.4-1.5-25.1-4.4c-6.8-2.9-12-7.3-15.9-13.1-3.8-5.8-5.9-12.5-6.1-19.8Z"/>
      <path class="cls-2" d="M772.6,225.5l42.4-110.4h15.7l45.2,110.4h-16.6l-12.9-33.4h-46.2l-12.1,33.4h-15.5ZM804.4,180.2h37.4l-11.5-30.6c-3.5-9.3-6.1-16.9-7.8-22.9-1.4,7.1-3.4,14.1-5.9,21.1l-12.1,32.4Z"/>
      <path class="cls-2" d="M881.6,225.5l42.4-110.4h15.7l45.2,110.4h-16.6l-12.9-33.4h-46.2l-12.1,33.4h-15.5ZM913.5,180.2h37.4l-11.5-30.6c-3.5-9.3-6.1-16.9-7.8-22.9-1.4,7.1-3.4,14.1-5.9,21.1l-12.1,32.4Z"/>
      <path class="cls-2" d="M997.8,190l13.8-1.2c.7,5.5,2.2,10.1,4.6,13.6,2.4,3.5,6.1,6.4,11.1,8.6,5,2.2,10.7,3.3,16.9,3.3s10.5-.8,14.8-2.5c4.3-1.7,7.4-3.9,9.5-6.8,2.1-2.9,3.1-6,3.1-9.5s-1-6.5-3-9.1c-2-2.6-5.3-4.8-9.9-6.5-3-1.2-9.5-2.9-19.7-5.4-10.1-2.4-17.2-4.7-21.3-6.9-5.3-2.8-9.2-6.2-11.8-10.3-2.6-4.1-3.9-8.7-3.9-13.7s1.6-10.8,4.7-15.6c3.2-4.8,7.8-8.5,13.9-11,6.1-2.5,12.8-3.8,20.3-3.8s15.4,1.3,21.7,4c6.3,2.6,11.1,6.5,14.4,11.6,3.4,5.1,5.2,10.9,5.4,17.4l-14,1.1c-.8-7-3.3-12.2-7.6-15.8-4.3-3.6-10.8-5.3-19.2-5.3s-15.3,1.6-19.3,4.9c-4,3.2-6.1,7.1-6.1,11.7s1.4,7.2,4.3,9.8c2.8,2.6,10.2,5.2,22,7.9,11.9,2.7,20,5,24.4,7,6.4,3,11.2,6.7,14.2,11.3,3.1,4.5,4.6,9.8,4.6,15.7s-1.7,11.4-5,16.6c-3.4,5.2-8.2,9.2-14.5,12.1-6.3,2.9-13.4,4.3-21.3,4.3s-18.4-1.5-25.1-4.4c-6.8-2.9-12-7.3-15.9-13.1-3.8-5.8-5.9-12.5-6.1-19.8Z"/>
    </g>
  </g>
  <g>
    <path class="cls-2" d="M591.2,329.7v-33.5h-12.5v-4.5h30.2v4.5h-12.6v33.5h-5Z"/>
    <path class="cls-2" d="M635.3,329.7v-38h27.5v4.5h-22.5v11.7h21v4.5h-21v12.9h23.4v4.5h-28.4Z"/>
    <path class="cls-2" d="M718.9,316.4l5,1.3c-1.1,4.1-3,7.3-5.7,9.5-2.7,2.2-6.1,3.3-10.1,3.3s-7.4-.8-10-2.5c-2.6-1.7-4.5-4.1-5.9-7.3-1.3-3.2-2-6.6-2-10.2s.8-7.4,2.3-10.4,3.7-5.2,6.5-6.7c2.8-1.5,5.9-2.3,9.2-2.3s7,1,9.6,2.9c2.6,1.9,4.4,4.7,5.4,8.2l-5,1.2c-.9-2.8-2.2-4.8-3.8-6-1.7-1.3-3.8-1.9-6.3-1.9s-5.4.7-7.3,2.1c-2,1.4-3.3,3.3-4.1,5.6-.8,2.4-1.2,4.8-1.2,7.3s.5,6.1,1.4,8.5c.9,2.4,2.4,4.2,4.4,5.4,2,1.2,4.1,1.8,6.5,1.8s5.2-.8,7.2-2.4c2-1.6,3.3-4,4-7.2Z"/>
    <path class="cls-2" d="M751.5,329.7v-38h5v15.6h19.8v-15.6h5v38h-5v-17.9h-19.8v17.9h-5Z"/>
    <path class="cls-2" d="M810.9,329.7v-38h5.2l20,29.9v-29.9h4.8v38h-5.2l-20-29.9v29.9h-4.8Z"/>
    <path class="cls-2" d="M869,311.2c0-6.3,1.7-11.3,5.1-14.8,3.4-3.6,7.8-5.4,13.1-5.4s6.7.8,9.5,2.5c2.8,1.7,5,4,6.4,7,1.5,3,2.2,6.4,2.2,10.2s-.8,7.3-2.3,10.4c-1.6,3-3.8,5.3-6.6,6.9-2.9,1.6-5.9,2.3-9.2,2.3s-6.8-.9-9.6-2.6c-2.8-1.7-5-4.1-6.4-7.1-1.5-3-2.2-6.2-2.2-9.5ZM874.2,311.3c0,4.6,1.2,8.2,3.7,10.8,2.5,2.6,5.6,4,9.3,4s6.9-1.3,9.4-4c2.4-2.7,3.7-6.4,3.7-11.3s-.5-5.8-1.6-8.1c-1-2.3-2.6-4.1-4.6-5.4-2-1.3-4.3-1.9-6.8-1.9-3.6,0-6.6,1.2-9.2,3.7-2.6,2.4-3.9,6.5-3.9,12.3Z"/>
    <path class="cls-2" d="M932.9,329.7v-38h5v33.5h18.7v4.5h-23.8Z"/>
    <path class="cls-2" d="M982.3,311.2c0-6.3,1.7-11.3,5.1-14.8,3.4-3.6,7.8-5.4,13.1-5.4s6.7.8,9.5,2.5c2.8,1.7,5,4,6.4,7,1.5,3,2.2,6.4,2.2,10.2s-.8,7.3-2.3,10.4c-1.6,3-3.8,5.3-6.6,6.9-2.9,1.6-5.9,2.3-9.2,2.3s-6.8-.9-9.6-2.6c-2.8-1.7-5-4.1-6.4-7.1-1.5-3-2.2-6.2-2.2-9.5ZM987.5,311.3c0,4.6,1.2,8.2,3.7,10.8,2.5,2.6,5.6,4,9.3,4s6.9-1.3,9.4-4c2.4-2.7,3.7-6.4,3.7-11.3s-.5-5.8-1.6-8.1c-1-2.3-2.6-4.1-4.6-5.4-2-1.3-4.3-1.9-6.8-1.9-3.6,0-6.6,1.2-9.2,3.7-2.6,2.4-3.9,6.5-3.9,12.3Z"/>
    <path class="cls-2" d="M1064.2,314.8v-4.5h16.1s0,14.1,0,14.1c-2.5,2-5,3.5-7.7,4.4-2.6,1-5.3,1.5-8.1,1.5s-7.1-.8-10.2-2.4c-3.1-1.6-5.4-3.9-6.9-6.9-1.6-3-2.3-6.4-2.3-10.1s.8-7.2,2.3-10.4c1.5-3.2,3.8-5.6,6.7-7.1,2.9-1.6,6.3-2.3,10-2.3s5.2.4,7.5,1.3c2.2.9,4,2.1,5.2,3.7,1.3,1.6,2.2,3.7,2.9,6.2l-4.5,1.2c-.6-1.9-1.3-3.5-2.1-4.6-.8-1.1-2.1-2-3.6-2.7-1.6-.7-3.3-1-5.2-1s-4.3.3-6,1.1c-1.7.7-3,1.6-4.1,2.8-1,1.1-1.8,2.4-2.4,3.8-1,2.4-1.5,4.9-1.5,7.7s.6,6.2,1.8,8.5c1.2,2.3,2.9,4,5.1,5.1,2.2,1.1,4.6,1.7,7.1,1.7s4.3-.4,6.4-1.3c2.1-.8,3.6-1.7,4.7-2.7v-7.1h-11.2Z"/>
    <path class="cls-2" d="M1109.8,329.7v-38h5v38h-5Z"/>
    <path class="cls-2" d="M1145,329.7v-38h27.5v4.5h-22.5v11.7h21v4.5h-21v12.9h23.4v4.5h-28.4Z"/>
    <path class="cls-2" d="M1199.8,317.5l4.7-.4c.2,1.9.7,3.5,1.6,4.7s2.1,2.2,3.8,3c1.7.8,3.7,1.1,5.8,1.1s3.6-.3,5.1-.9c1.5-.6,2.6-1.4,3.3-2.3.7-1,1.1-2.1,1.1-3.3s-.3-2.2-1-3.1c-.7-.9-1.8-1.6-3.4-2.2-1-.4-3.3-1-6.8-1.9-3.5-.8-5.9-1.6-7.3-2.4-1.8-1-3.2-2.1-4.1-3.5-.9-1.4-1.3-3-1.3-4.7s.5-3.7,1.6-5.4c1.1-1.7,2.7-2.9,4.8-3.8,2.1-.9,4.4-1.3,7-1.3s5.3.5,7.5,1.4c2.2.9,3.8,2.2,5,4,1.2,1.8,1.8,3.8,1.9,6l-4.8.4c-.3-2.4-1.1-4.2-2.6-5.4-1.5-1.2-3.7-1.8-6.6-1.8s-5.3.6-6.7,1.7c-1.4,1.1-2.1,2.5-2.1,4s.5,2.5,1.5,3.4c1,.9,3.5,1.8,7.6,2.7,4.1.9,6.9,1.7,8.4,2.4,2.2,1,3.8,2.3,4.9,3.9,1.1,1.6,1.6,3.4,1.6,5.4s-.6,3.9-1.7,5.7c-1.2,1.8-2.8,3.2-5,4.2-2.2,1-4.6,1.5-7.3,1.5s-6.3-.5-8.7-1.5c-2.3-1-4.2-2.5-5.5-4.5-1.3-2-2-4.3-2.1-6.8Z"/>
  </g>
</svg>